<svg xmlns="http://www.w3.org/2000/svg" width="56" height="70" viewBox="0 0 56 70"><g transform="translate(-0.307 -0.183)"><path d="M5,0H36A10,10,0,0,1,46,10V50a5,5,0,0,1-5,5H5a5,5,0,0,1-5-5V5A5,5,0,0,1,5,0Z" transform="translate(10.307 0.183)" fill="#b576ff" opacity="0.19"/><path d="M5,0H36A10,10,0,0,1,46,10V50a5,5,0,0,1-5,5H5a5,5,0,0,1-5-5V5A5,5,0,0,1,5,0Z" transform="translate(5.307 8.183)" fill="#b576ff" opacity="0.57"/><path d="M5,0H36A10,10,0,0,1,46,10V50a5,5,0,0,1-5,5H5a5,5,0,0,1-5-5V5A5,5,0,0,1,5,0Z" transform="translate(0.307 15.183)" fill="#b576ff"/><ellipse cx="3.367" cy="3.367" rx="3.367" ry="3.367" transform="translate(6.999 24.906)" fill="#dfbff9"/><path d="M-625.781,2078h26.1" transform="translate(634.346 -2038.927)" fill="none" stroke="#dfbff9" stroke-linecap="round" stroke-width="2"/><path d="M-625.781,2078h16.805" transform="translate(634.346 -2033.527)" fill="none" stroke="#dfbff9" stroke-linecap="round" stroke-width="2"/></g></svg>