<svg xmlns="http://www.w3.org/2000/svg" viewBox="0 0 773.3 213"><style xmlns="" class="adjust-screen-brightness" media="screen">html::before {
  content: " ";
  z-index: 2147483647;
  pointer-events: none;
  position: fixed;
  left: 0;
  top: 0;
  width: 100vw;
  height: 100vh;
  background-color: rgba(0, 0, 0, 0.6);
}</style><link xmlns="" type="text/css" rel="stylesheet" id="dark-mode-custom-link"/><link xmlns="" type="text/css" rel="stylesheet" id="dark-mode-general-link"/><style xmlns="" lang="en" type="text/css" id="dark-mode-custom-style"/><style xmlns="" lang="en" type="text/css" id="dark-mode-native-style"/><style xmlns="" lang="en" type="text/css" id="dark-mode-native-sheet"/><g id="Kovai.co_-_Microsoft_partner_logo" data-name="Kovai.co - Microsoft partner logo" transform="translate(-7.2)"><g id="Group_2" data-name="Group 2"><path id="Path_1" data-name="Path 1" d="M205.6,175.1v26.1h-4.5V180.7H201l-8.1,20.5h-3l-8.3-20.5h-.1v20.5h-4.2V175.1h6.5l7.5,19.3h.1l7.9-19.3Zm3.7,2a2.172,2.172,0,0,1,.8-1.8,2.489,2.489,0,0,1,1.9-.7,2.352,2.352,0,0,1,1.9.7,2.5,2.5,0,0,1,.8,1.8,2.172,2.172,0,0,1-.8,1.8,2.929,2.929,0,0,1-3.8,0A2.9,2.9,0,0,1,209.3,177.1Zm4.9,5.4v18.7h-4.4V182.5ZM227.6,198a4.664,4.664,0,0,0,2.2-.5,9.409,9.409,0,0,0,2.2-1.2v4.1a8.544,8.544,0,0,1-2.4.9,13.855,13.855,0,0,1-3,.3,8.671,8.671,0,0,1-6.7-2.6,8.892,8.892,0,0,1-2.6-6.6A10.375,10.375,0,0,1,220,185a9.714,9.714,0,0,1,7.5-2.9,10.679,10.679,0,0,1,2.5.3,14.969,14.969,0,0,1,2,.7v4.2a7.086,7.086,0,0,0-2.1-1.1,8.506,8.506,0,0,0-2.2-.4,5.23,5.23,0,0,0-4.2,1.7,6.3,6.3,0,0,0-1.6,4.6,5.671,5.671,0,0,0,1.6,4.4A5.852,5.852,0,0,0,227.6,198Zm16.9-15.8a3.083,3.083,0,0,1,1,.1,6.376,6.376,0,0,1,.7.2V187a1.865,1.865,0,0,0-1-.5,7.772,7.772,0,0,0-1.6-.2,3.32,3.32,0,0,0-2.7,1.4,6.808,6.808,0,0,0-1.1,4.2v9.4h-4.4V182.6h4.4v3h.1a5.46,5.46,0,0,1,1.8-2.4A3.562,3.562,0,0,1,244.5,182.2Zm1.9,9.9a10.422,10.422,0,0,1,2.6-7.4,9.812,9.812,0,0,1,7.3-2.7c2.9,0,5.2.8,6.8,2.6a10.225,10.225,0,0,1,2.5,7.1A10.508,10.508,0,0,1,263,199a9.5,9.5,0,0,1-7.1,2.7,9.3,9.3,0,0,1-6.9-2.5A9.587,9.587,0,0,1,246.4,192.1Zm4.6-.2a6.89,6.89,0,0,0,1.3,4.5,4.643,4.643,0,0,0,3.8,1.6,4.443,4.443,0,0,0,3.7-1.6,7.208,7.208,0,0,0,1.3-4.6,7,7,0,0,0-1.3-4.6,4.535,4.535,0,0,0-3.6-1.6,4.443,4.443,0,0,0-3.7,1.6A6.656,6.656,0,0,0,251,191.9Zm21.1-4.5a2.035,2.035,0,0,0,.6,1.5,8.294,8.294,0,0,0,2.7,1.3,8.447,8.447,0,0,1,3.7,2.4,5.231,5.231,0,0,1-1,7.4,8.383,8.383,0,0,1-5.5,1.6,12.973,12.973,0,0,1-2.6-.3,9.941,9.941,0,0,1-2.4-.7v-4.4a12.639,12.639,0,0,0,2.6,1.3,8.5,8.5,0,0,0,2.5.5,4.087,4.087,0,0,0,2.2-.4,1.417,1.417,0,0,0,.7-1.4,2.13,2.13,0,0,0-.7-1.6,16.14,16.14,0,0,0-2.8-1.5,8.685,8.685,0,0,1-3.4-2.3,5.4,5.4,0,0,1-1-3.3,5.307,5.307,0,0,1,2-4.2,7.883,7.883,0,0,1,5.2-1.6,17.962,17.962,0,0,1,2.2.2c.8.1,1.5.4,2.1.5v4.3a10.244,10.244,0,0,0-2.1-1,6.562,6.562,0,0,0-2.3-.4,3.312,3.312,0,0,0-1.9.5A2.449,2.449,0,0,0,272.1,187.4Zm10,4.7a10.422,10.422,0,0,1,2.6-7.4A9.812,9.812,0,0,1,292,182c2.9,0,5.2.8,6.8,2.6a10.225,10.225,0,0,1,2.5,7.1,10.508,10.508,0,0,1-2.6,7.3,9.5,9.5,0,0,1-7.1,2.7,9.3,9.3,0,0,1-6.9-2.5A10,10,0,0,1,282.1,192.1Zm4.6-.2a6.89,6.89,0,0,0,1.3,4.5,4.643,4.643,0,0,0,3.8,1.6,4.443,4.443,0,0,0,3.7-1.6,7.208,7.208,0,0,0,1.3-4.6,7,7,0,0,0-1.3-4.6,4.535,4.535,0,0,0-3.6-1.6,4.443,4.443,0,0,0-3.7,1.6A6.657,6.657,0,0,0,286.7,191.9Zm29.2-5.8h-6.6v15.1h-4.5V186.1h-3.1v-3.6h3.1v-2.6a6.72,6.72,0,0,1,1.9-4.8,6.555,6.555,0,0,1,4.9-1.9c.5,0,1,.1,1.5.1a3.6,3.6,0,0,1,1.1.2v3.8a2.192,2.192,0,0,0-.8-.3,5.066,5.066,0,0,0-1.3-.2,2.865,2.865,0,0,0-2.1.8,3.727,3.727,0,0,0-.7,2.5v2.2h6.6v-4.2l4.4-1.3v5.6h4.5V186h-4.5v8.8a3.845,3.845,0,0,0,.6,2.4,2.444,2.444,0,0,0,2,.7,5.073,5.073,0,0,0,.9-.2,1.884,1.884,0,0,0,.9-.4v3.6a3.355,3.355,0,0,1-1.4.4,13.664,13.664,0,0,1-1.9.2,5.378,5.378,0,0,1-4.2-1.5,6.547,6.547,0,0,1-1.4-4.5l.1-9.4Z" fill="#737373"/><g id="Group_1" data-name="Group 1"><rect id="Rectangle_1" data-name="Rectangle 1" width="20.7" height="20.7" transform="translate(120.7 166.4)" fill="#f25022"/><rect id="Rectangle_2" data-name="Rectangle 2" width="20.7" height="20.7" transform="translate(143.6 166.4)" fill="#7fba00"/><rect id="Rectangle_3" data-name="Rectangle 3" width="20.7" height="20.7" transform="translate(120.7 189.2)" fill="#00a4ef"/><rect id="Rectangle_4" data-name="Rectangle 4" width="20.7" height="20.7" transform="translate(143.6 189.2)" fill="#ffb900"/></g></g><g id="Group_3" data-name="Group 3"><path id="Path_2" data-name="Path 2" d="M62.8,66.2H56.4V29.6c0-2.9.2-6.4.5-10.6h-.2a46.257,46.257,0,0,1-1.6,5.3L36.5,66.2H33.4L14.8,24.6A30.909,30.909,0,0,1,13.2,19H13c.2,2.2.3,5.7.3,10.7V66.2H7.2V11.7h8.4l16.7,38a51.828,51.828,0,0,1,2.5,6.5H35c1.1-3,2-5.2,2.6-6.7L54.7,11.6h8V66.2Z"/><path id="Path_3" data-name="Path 3" d="M79.5,17.4a4.357,4.357,0,0,1-2.9-1.1,3.847,3.847,0,0,1-1.2-2.9,3.847,3.847,0,0,1,1.2-2.9,3.847,3.847,0,0,1,2.9-1.2,4,4,0,0,1,2.9,1.2,3.847,3.847,0,0,1,1.2,2.9,4,4,0,0,1-1.2,2.9A4.357,4.357,0,0,1,79.5,17.4Zm3,48.8H76.3V27.3h6.2Z"/><path id="Path_4" data-name="Path 4" d="M121.7,64.4a20.128,20.128,0,0,1-10.6,2.7c-5.6,0-10-1.8-13.4-5.4s-5.1-8.3-5.1-14.1c0-6.4,1.8-11.6,5.5-15.5s8.6-5.8,14.7-5.8a20.592,20.592,0,0,1,9.1,1.9v6.4a16.084,16.084,0,0,0-9.3-3,12.466,12.466,0,0,0-9.8,4.3c-2.6,2.9-3.8,6.6-3.8,11.2s1.2,8.2,3.6,10.8a12.509,12.509,0,0,0,9.6,4,15.441,15.441,0,0,0,9.6-3.4v5.9Z"/><path id="Path_5" data-name="Path 5" d="M151.4,33.6a7.955,7.955,0,0,0-4.7-1.3c-2.7,0-4.9,1.3-6.7,3.8s-2.7,5.9-2.7,10.3V66.3h-6.2v-39h6.2v8h.2a13.182,13.182,0,0,1,4.1-6.4,9.458,9.458,0,0,1,6.1-2.3,11.306,11.306,0,0,1,3.7.5v6.5Z"/><path id="Path_6" data-name="Path 6" d="M174.5,67.1c-5.8,0-10.4-1.8-13.8-5.5-3.4-3.6-5.2-8.5-5.2-14.5,0-6.5,1.8-11.7,5.4-15.3,3.6-3.7,8.4-5.5,14.5-5.5,5.8,0,10.3,1.8,13.6,5.4s4.9,8.5,4.9,14.9c0,6.2-1.8,11.2-5.3,14.9C185.1,65.3,180.4,67.1,174.5,67.1Zm.4-35.5a11.9,11.9,0,0,0-9.5,4.1c-2.3,2.7-3.5,6.5-3.5,11.3,0,4.6,1.2,8.3,3.5,10.9a11.964,11.964,0,0,0,9.5,4q6,0,9.3-3.9t3.3-11.1c0-4.9-1.1-8.6-3.3-11.3C182.1,32.9,179,31.6,174.9,31.6Z"/><path id="Path_7" data-name="Path 7" d="M201.5,64.8V58.1a18.471,18.471,0,0,0,11.2,3.8c5.5,0,8.2-1.8,8.2-5.5a4.406,4.406,0,0,0-.7-2.6,6.871,6.871,0,0,0-1.9-1.9,10.621,10.621,0,0,0-2.8-1.5c-1.1-.4-2.2-.9-3.5-1.4a48.483,48.483,0,0,1-4.5-2.1,14.034,14.034,0,0,1-3.3-2.4,9.847,9.847,0,0,1-2-3,11.315,11.315,0,0,1-.7-3.9,8.648,8.648,0,0,1,1.3-4.8,11.045,11.045,0,0,1,3.3-3.5,13.016,13.016,0,0,1,4.8-2.1,20.241,20.241,0,0,1,5.5-.7,23.8,23.8,0,0,1,9.1,1.7v6.3a17.623,17.623,0,0,0-9.9-2.8,10.8,10.8,0,0,0-3.2.4,8.805,8.805,0,0,0-2.4,1.1,6.373,6.373,0,0,0-1.6,1.7,4.282,4.282,0,0,0-.6,2.2,4.626,4.626,0,0,0,.6,2.5,6.7,6.7,0,0,0,1.6,1.8,12.628,12.628,0,0,0,2.6,1.4c1,.4,2.2.9,3.5,1.4,1.7.7,3.3,1.3,4.6,2a15.4,15.4,0,0,1,3.5,2.4,8.938,8.938,0,0,1,2.2,3,9.979,9.979,0,0,1,.8,4.1,9.1,9.1,0,0,1-1.3,5,11.358,11.358,0,0,1-3.4,3.5,18.12,18.12,0,0,1-4.9,2.1,22.473,22.473,0,0,1-5.8.7A20.072,20.072,0,0,1,201.5,64.8Z"/><path id="Path_8" data-name="Path 8" d="M253.2,67.1c-5.8,0-10.4-1.8-13.8-5.5-3.4-3.6-5.2-8.5-5.2-14.5,0-6.5,1.8-11.7,5.4-15.3,3.6-3.7,8.4-5.5,14.5-5.5,5.8,0,10.3,1.8,13.6,5.4s4.9,8.5,4.9,14.9c0,6.2-1.8,11.2-5.3,14.9C263.8,65.3,259.1,67.1,253.2,67.1Zm.4-35.5a11.9,11.9,0,0,0-9.5,4.1c-2.3,2.7-3.5,6.5-3.5,11.3,0,4.6,1.2,8.3,3.5,10.9a11.964,11.964,0,0,0,9.5,4q6,0,9.3-3.9t3.3-11.1c0-4.9-1.1-8.6-3.3-11.3S257.6,31.6,253.6,31.6Z"/><path id="Path_9" data-name="Path 9" d="M301.8,14a8.041,8.041,0,0,0-4.1-1c-4.4,0-6.5,2.8-6.5,8.3v6h9.1v5.3h-9.1V66.2H285V32.6h-6.7V27.3H285V21a13.406,13.406,0,0,1,3.5-9.7,11.917,11.917,0,0,1,8.8-3.6,11.168,11.168,0,0,1,4.5.7V14Z"/><path id="Path_10" data-name="Path 10" d="M322.8,65.8A12.192,12.192,0,0,1,317,67q-10.2,0-10.2-11.4v-23H300V27.3h6.7V17.8l6.2-2V27.3h9.8v5.3H313V54.5c0,2.6.4,4.5,1.3,5.6a5.433,5.433,0,0,0,4.4,1.7,6.482,6.482,0,0,0,4.1-1.3Z"/><path id="Path_11" data-name="Path 11" d="M92.4,114.6v20.6H86V80.7h15c5.8,0,10.4,1.4,13.6,4.3q4.8,4.2,4.8,12a16.67,16.67,0,0,1-5.3,12.7c-3.6,3.3-8.4,4.9-14.4,4.9Zm0-28.1v22.4h6.7c4.4,0,7.8-1,10.1-3a10.785,10.785,0,0,0,3.5-8.5c0-7.2-4.3-10.8-12.8-10.8H92.4Z"/><path id="Path_12" data-name="Path 12" d="M154,135.2h-6.2v-6.1h-.2a12.987,12.987,0,0,1-12,7c-3.9,0-6.9-1-9.1-3.1a10.773,10.773,0,0,1-3.3-8.2c0-7.3,4.3-11.5,12.9-12.7l11.7-1.6c0-6.6-2.7-9.9-8-9.9a19.171,19.171,0,0,0-12.7,4.8V99a24.252,24.252,0,0,1,13.2-3.7c9.2,0,13.7,4.8,13.7,14.5Zm-6.2-19.7-9.4,1.3a14.99,14.99,0,0,0-6.5,2.1c-1.4,1-2.2,2.8-2.2,5.5a6.188,6.188,0,0,0,2,4.7,8,8,0,0,0,5.4,1.8,10.135,10.135,0,0,0,7.7-3.3,11.678,11.678,0,0,0,3-8.2Z"/><path id="Path_13" data-name="Path 13" d="M186.1,102.6a7.955,7.955,0,0,0-4.7-1.3c-2.7,0-4.9,1.3-6.7,3.8S172,111,172,115.4v19.9h-6.2v-39H172v8h.2a13.182,13.182,0,0,1,4.1-6.4,9.458,9.458,0,0,1,6.1-2.3,11.306,11.306,0,0,1,3.7.5v6.5Z"/><path id="Path_14" data-name="Path 14" d="M210.9,134.8a12.192,12.192,0,0,1-5.8,1.2q-10.2,0-10.2-11.4v-23h-6.7V96.3h6.7V86.8l6.2-2V96.3h9.8v5.3h-9.8v21.9c0,2.6.4,4.5,1.3,5.6a5.433,5.433,0,0,0,4.4,1.7,6.482,6.482,0,0,0,4.1-1.3Z"/><path id="Path_15" data-name="Path 15" d="M251.5,135.2h-6.2V113c0-8.3-3-12.4-9.1-12.4a9.833,9.833,0,0,0-7.7,3.5,13.192,13.192,0,0,0-3.1,8.9v22.2h-6.2V96.3h6.2v6.5h.2a14.076,14.076,0,0,1,12.8-7.4c4.3,0,7.5,1.4,9.8,4.1,2.3,2.8,3.4,6.7,3.4,11.9v23.8Z"/><path id="Path_16" data-name="Path 16" d="M294.6,117.3H267.1c.1,4.3,1.3,7.7,3.5,10,2.2,2.4,5.3,3.5,9.2,3.5a19.077,19.077,0,0,0,12.1-4.3v5.9c-3.4,2.5-7.9,3.7-13.6,3.7-5.5,0-9.8-1.8-13-5.3-3.1-3.5-4.7-8.5-4.7-14.9,0-6.1,1.7-11,5.2-14.8a16.5,16.5,0,0,1,12.8-5.7c5.1,0,9,1.6,11.8,4.9s4.2,7.9,4.2,13.7Zm-6.4-5.3c0-3.6-.9-6.4-2.6-8.4a8.861,8.861,0,0,0-7.1-3,10.291,10.291,0,0,0-7.5,3.2,14.267,14.267,0,0,0-3.8,8.3h21Z"/><path id="Path_17" data-name="Path 17" d="M324.3,102.6a7.955,7.955,0,0,0-4.7-1.3c-2.7,0-4.9,1.3-6.7,3.8s-2.7,5.9-2.7,10.3v19.9H304v-39h6.2v8h.2a13.182,13.182,0,0,1,4.1-6.4,9.458,9.458,0,0,1,6.1-2.3,11.306,11.306,0,0,1,3.7.5v6.5Z"/></g><g id="Group_4" data-name="Group 4"><rect id="Rectangle_5" data-name="Rectangle 5" width="4" height="213" transform="translate(346.9)" fill="#afafaf"/></g><g id="Group_9" data-name="Group 9"><g id="Group_5" data-name="Group 5"><path id="Path_18" data-name="Path 18" d="M393.6,42.3a14.319,14.319,0,0,1-7.4,1.9,10.026,10.026,0,0,1-7.7-3.1c-2-2-2.9-4.8-2.9-8.1a11.61,11.61,0,0,1,3.3-8.5,11.15,11.15,0,0,1,8.3-3.3,14.119,14.119,0,0,1,6.1,1.2v2.9a11.971,11.971,0,0,0-6.4-1.7,8,8,0,0,0-6.1,2.6,9.323,9.323,0,0,0-2.4,6.7,9.246,9.246,0,0,0,2.2,6.6,7.834,7.834,0,0,0,6,2.4,9.329,9.329,0,0,0,4.5-1V34.7h-4.9V32.3h7.5v10Z" fill="#8d7b43"/><path id="Path_19" data-name="Path 19" d="M404.2,44.2a7.31,7.31,0,0,1-5.6-2.2,8.19,8.19,0,0,1-2.1-5.9,8.252,8.252,0,0,1,2.2-6.2,7.844,7.844,0,0,1,5.9-2.2,6.811,6.811,0,0,1,5.5,2.2,8.956,8.956,0,0,1,2,6.1,8.7,8.7,0,0,1-2.1,6.1A8.565,8.565,0,0,1,404.2,44.2Zm.2-14.5a5.066,5.066,0,0,0-3.9,1.7,6.506,6.506,0,0,0-1.4,4.6,6.445,6.445,0,0,0,1.4,4.4,5.033,5.033,0,0,0,3.9,1.6,4.643,4.643,0,0,0,3.8-1.6,6.89,6.89,0,0,0,1.3-4.5,7,7,0,0,0-1.3-4.6A4.643,4.643,0,0,0,404.4,29.7Z" fill="#8d7b43"/><path id="Path_20" data-name="Path 20" d="M417.8,43.8h-2.5V20.3h2.5Z" fill="#8d7b43"/><path id="Path_21" data-name="Path 21" d="M435.6,43.8H433V41.1h0a6.476,6.476,0,0,1-10.3,1,8.749,8.749,0,0,1-1.8-5.8,9.7,9.7,0,0,1,2-6.3,6.51,6.51,0,0,1,5.3-2.4,5.19,5.19,0,0,1,4.8,2.6h.1V20.4h2.5ZM433,36.6V34.3a4.446,4.446,0,0,0-1.3-3.3,4.08,4.08,0,0,0-3.2-1.3,4.655,4.655,0,0,0-3.7,1.7,7.3,7.3,0,0,0-1.3,4.7,6.318,6.318,0,0,0,1.3,4.3,4.122,4.122,0,0,0,3.4,1.6,4.192,4.192,0,0,0,3.4-1.5A5.21,5.21,0,0,0,433,36.6Z" fill="#8d7b43"/><path id="Path_22" data-name="Path 22" d="M465.2,43.8h-2.9l-2.4-6.2h-9.4l-2.2,6.2h-2.9l8.5-22.2h2.7Zm-6.1-8.6-3.5-9.5a9.588,9.588,0,0,1-.3-1.5h-.1a5.416,5.416,0,0,1-.4,1.5l-3.5,9.5Z" fill="#8d7b43"/><path id="Path_23" data-name="Path 23" d="M469.8,41.5h0l-.1,9.6h-2.5V28h2.5v2.8h.1a6.417,6.417,0,0,1,10.3-1.1,9,9,0,0,1,1.7,5.7,9.767,9.767,0,0,1-1.9,6.4,6.51,6.51,0,0,1-5.3,2.4A5.3,5.3,0,0,1,469.8,41.5Zm0-6.4v2.2a4.446,4.446,0,0,0,1.3,3.3,4.433,4.433,0,0,0,6.8-.4,7.923,7.923,0,0,0,1.3-4.9,6.562,6.562,0,0,0-1.2-4.2,4,4,0,0,0-3.3-1.5,4.606,4.606,0,0,0-3.6,1.5A6.394,6.394,0,0,0,469.8,35.1Z" fill="#8d7b43"/><path id="Path_24" data-name="Path 24" d="M487.6,41.5h0l-.1,9.6H485V28h2.5v2.8h.1a6.417,6.417,0,0,1,10.3-1.1,9,9,0,0,1,1.7,5.7,9.767,9.767,0,0,1-1.9,6.4,6.51,6.51,0,0,1-5.3,2.4A5.3,5.3,0,0,1,487.6,41.5Zm-.1-6.4v2.2a4.446,4.446,0,0,0,1.3,3.3,4.433,4.433,0,0,0,6.8-.4,7.923,7.923,0,0,0,1.3-4.9,6.562,6.562,0,0,0-1.2-4.2,4,4,0,0,0-3.3-1.5,4.606,4.606,0,0,0-3.6,1.5A7.068,7.068,0,0,0,487.5,35.1Z" fill="#8d7b43"/><path id="Path_25" data-name="Path 25" d="M505.3,43.8h-2.5V20.3h2.5Z" fill="#8d7b43"/><path id="Path_26" data-name="Path 26" d="M510.8,23.9a1.845,1.845,0,0,1-1.2-.5,1.346,1.346,0,0,1-.5-1.2,1.7,1.7,0,0,1,3.4,0,1.845,1.845,0,0,1-.5,1.2A1.346,1.346,0,0,1,510.8,23.9Zm1.3,19.9h-2.5V28h2.5Z" fill="#8d7b43"/><path id="Path_27" data-name="Path 27" d="M527.2,43.1a8.583,8.583,0,0,1-4.3,1.1,7.089,7.089,0,0,1-5.5-2.2,8.025,8.025,0,0,1-2.1-5.7,8.809,8.809,0,0,1,2.2-6.3,7.834,7.834,0,0,1,6-2.4,8.744,8.744,0,0,1,3.7.8V31a6.585,6.585,0,0,0-3.8-1.2,5.281,5.281,0,0,0-4,1.7,6.749,6.749,0,0,0-1.6,4.6,6.178,6.178,0,0,0,1.5,4.4,4.987,4.987,0,0,0,3.9,1.6,6.426,6.426,0,0,0,3.9-1.4v2.4Z" fill="#8d7b43"/><path id="Path_28" data-name="Path 28" d="M541.5,43.8H539V41.3h-.1a5.334,5.334,0,0,1-4.9,2.9,4.924,4.924,0,0,1-3.7-1.3,4.156,4.156,0,0,1-1.3-3.3c0-3,1.7-4.7,5.2-5.2l4.8-.7c0-2.7-1.1-4-3.3-4a8.075,8.075,0,0,0-5.2,2V29.1a9.978,9.978,0,0,1,5.4-1.5c3.7,0,5.6,2,5.6,5.9Zm-2.6-8-3.8.5a7.063,7.063,0,0,0-2.7.9,2.531,2.531,0,0,0-.9,2.2,2.56,2.56,0,0,0,.8,1.9,3.232,3.232,0,0,0,2.2.7,3.87,3.87,0,0,0,3.1-1.3,4.871,4.871,0,0,0,1.2-3.4V35.8Z" fill="#8d7b43"/><path id="Path_29" data-name="Path 29" d="M552.7,43.7a5.356,5.356,0,0,1-2.4.5c-2.8,0-4.2-1.5-4.2-4.6V30.2h-2.7V28h2.7V24.1l2.5-.8V28h4v2.2h-4v8.9a4.352,4.352,0,0,0,.5,2.3,2.14,2.14,0,0,0,1.8.7,3.371,3.371,0,0,0,1.7-.5v2.1Z" fill="#8d7b43"/><path id="Path_30" data-name="Path 30" d="M556.5,23.9a1.845,1.845,0,0,1-1.2-.5,1.346,1.346,0,0,1-.5-1.2,1.7,1.7,0,0,1,3.4,0,1.845,1.845,0,0,1-.5,1.2A1.346,1.346,0,0,1,556.5,23.9Zm1.3,19.9h-2.5V28h2.5Z" fill="#8d7b43"/><path id="Path_31" data-name="Path 31" d="M568.7,44.2a7.309,7.309,0,0,1-5.6-2.2,8.189,8.189,0,0,1-2.1-5.9,8.252,8.252,0,0,1,2.2-6.2,7.844,7.844,0,0,1,5.9-2.2,6.811,6.811,0,0,1,5.5,2.2,8.956,8.956,0,0,1,2,6.1,8.7,8.7,0,0,1-2.1,6.1A8.565,8.565,0,0,1,568.7,44.2Zm.1-14.5a5.066,5.066,0,0,0-3.9,1.7,6.506,6.506,0,0,0-1.4,4.6,6.445,6.445,0,0,0,1.4,4.4,5.033,5.033,0,0,0,3.9,1.6,4.643,4.643,0,0,0,3.8-1.6,6.89,6.89,0,0,0,1.3-4.5,7,7,0,0,0-1.3-4.6A4.813,4.813,0,0,0,568.8,29.7Z" fill="#8d7b43"/><path id="Path_32" data-name="Path 32" d="M592.9,43.8h-2.5v-9c0-3.4-1.2-5.1-3.7-5.1a4.314,4.314,0,0,0-3.2,1.4,5.584,5.584,0,0,0-1.2,3.6v9h-2.5V28h2.5v2.6h.1a5.692,5.692,0,0,1,5.2-3,4.988,4.988,0,0,1,4,1.7,7.534,7.534,0,0,1,1.4,4.9v9.6Z" fill="#8d7b43"/><path id="Path_33" data-name="Path 33" d="M604.9,43.8V21.6H611q11.7,0,11.7,10.8a11,11,0,0,1-3.3,8.3,12.047,12.047,0,0,1-8.7,3.1ZM607.5,24V41.5h3.3a9.639,9.639,0,0,0,6.8-2.3,8.765,8.765,0,0,0,2.4-6.6c0-5.7-3-8.5-9.1-8.5h-3.4Z" fill="#8d7b43"/><path id="Path_34" data-name="Path 34" d="M638.7,36.5H627.5a5.809,5.809,0,0,0,1.4,4.1,4.754,4.754,0,0,0,3.7,1.4,7.614,7.614,0,0,0,4.9-1.8v2.4a9.187,9.187,0,0,1-5.5,1.5,6.661,6.661,0,0,1-5.3-2.2c-1.3-1.4-1.9-3.5-1.9-6.1a8.44,8.44,0,0,1,2.1-6,6.5,6.5,0,0,1,5.2-2.3,5.966,5.966,0,0,1,4.8,2,8.509,8.509,0,0,1,1.7,5.6v1.4Zm-2.6-2.1A4.954,4.954,0,0,0,635,31a3.7,3.7,0,0,0-2.9-1.2,4.158,4.158,0,0,0-3.1,1.3,5.617,5.617,0,0,0-1.5,3.4h8.6Z" fill="#8d7b43"/><path id="Path_35" data-name="Path 35" d="M654.1,28l-6.3,15.9h-2.5l-6-15.9h2.8l4,11.5a12.3,12.3,0,0,1,.6,2.2h.1a14.187,14.187,0,0,1,.5-2.2l4.2-11.6h2.6Z" fill="#8d7b43"/><path id="Path_36" data-name="Path 36" d="M668.7,36.5H657.5a5.809,5.809,0,0,0,1.4,4.1,4.754,4.754,0,0,0,3.7,1.4,7.614,7.614,0,0,0,4.9-1.8v2.4a9.187,9.187,0,0,1-5.5,1.5,6.661,6.661,0,0,1-5.3-2.2c-1.3-1.4-1.9-3.5-1.9-6.1a8.44,8.44,0,0,1,2.1-6,6.5,6.5,0,0,1,5.2-2.3,5.966,5.966,0,0,1,4.8,2,8.509,8.509,0,0,1,1.7,5.6v1.4Zm-2.6-2.1A4.954,4.954,0,0,0,665,31a3.7,3.7,0,0,0-2.9-1.2,4.158,4.158,0,0,0-3.1,1.3,5.617,5.617,0,0,0-1.5,3.4h8.6Z" fill="#8d7b43"/><path id="Path_37" data-name="Path 37" d="M674.2,43.8h-2.5V20.3h2.5Z" fill="#8d7b43"/><path id="Path_38" data-name="Path 38" d="M685.1,44.2a7.309,7.309,0,0,1-5.6-2.2,8.189,8.189,0,0,1-2.1-5.9,8.252,8.252,0,0,1,2.2-6.2,7.844,7.844,0,0,1,5.9-2.2,6.811,6.811,0,0,1,5.5,2.2,8.956,8.956,0,0,1,2,6.1,8.7,8.7,0,0,1-2.1,6.1A8.565,8.565,0,0,1,685.1,44.2Zm.2-14.5a5.066,5.066,0,0,0-3.9,1.7A6.506,6.506,0,0,0,680,36a6.445,6.445,0,0,0,1.4,4.4,5.033,5.033,0,0,0,3.9,1.6,4.643,4.643,0,0,0,3.8-1.6,6.89,6.89,0,0,0,1.3-4.5,7,7,0,0,0-1.3-4.6A4.963,4.963,0,0,0,685.3,29.7Z" fill="#8d7b43"/><path id="Path_39" data-name="Path 39" d="M698.8,41.5h0l-.1,9.6h-2.5V28h2.5v2.8h.1a6.417,6.417,0,0,1,10.3-1.1,9,9,0,0,1,1.7,5.7,9.767,9.767,0,0,1-1.9,6.4,6.51,6.51,0,0,1-5.3,2.4A5.3,5.3,0,0,1,698.8,41.5Zm-.1-6.4v2.2a4.446,4.446,0,0,0,1.3,3.3,4.433,4.433,0,0,0,6.8-.4,7.923,7.923,0,0,0,1.3-4.9,6.562,6.562,0,0,0-1.2-4.2,4,4,0,0,0-3.3-1.5,4.606,4.606,0,0,0-3.6,1.5A7.068,7.068,0,0,0,698.7,35.1Z" fill="#8d7b43"/><path id="Path_40" data-name="Path 40" d="M736.5,43.8H734V34.7a7.161,7.161,0,0,0-.8-3.8,3.04,3.04,0,0,0-2.7-1.2,3.472,3.472,0,0,0-2.8,1.5,5.516,5.516,0,0,0-1.1,3.6v9h-2.5V34.4c0-3.1-1.2-4.7-3.6-4.7a3.651,3.651,0,0,0-2.8,1.4,5.928,5.928,0,0,0-1.1,3.6v9h-2.5V28h2.5v2.5h.1a5.441,5.441,0,0,1,4.9-2.9,4.47,4.47,0,0,1,2.8.9,4.63,4.63,0,0,1,1.7,2.4,5.661,5.661,0,0,1,5.3-3.3c3.5,0,5.2,2.2,5.2,6.5v9.7Z" fill="#8d7b43"/><path id="Path_41" data-name="Path 41" d="M753.1,36.5H741.9a5.809,5.809,0,0,0,1.4,4.1A4.754,4.754,0,0,0,747,42a7.614,7.614,0,0,0,4.9-1.8v2.4a9.187,9.187,0,0,1-5.5,1.5,6.661,6.661,0,0,1-5.3-2.2c-1.3-1.4-1.9-3.5-1.9-6.1a8.44,8.44,0,0,1,2.1-6,6.5,6.5,0,0,1,5.2-2.3,5.966,5.966,0,0,1,4.8,2,8.509,8.509,0,0,1,1.7,5.6v1.4Zm-2.6-2.1a4.954,4.954,0,0,0-1.1-3.4,3.7,3.7,0,0,0-2.9-1.2,4.158,4.158,0,0,0-3.1,1.3,5.617,5.617,0,0,0-1.5,3.4h8.6Z" fill="#8d7b43"/><path id="Path_42" data-name="Path 42" d="M769.3,43.8h-2.5v-9c0-3.4-1.2-5.1-3.7-5.1a4.314,4.314,0,0,0-3.2,1.4,5.584,5.584,0,0,0-1.2,3.6v9h-2.5V28h2.5v2.6h.1a5.692,5.692,0,0,1,5.2-3,4.988,4.988,0,0,1,4,1.7,7.534,7.534,0,0,1,1.4,4.9v9.6Z" fill="#8d7b43"/><path id="Path_43" data-name="Path 43" d="M780.5,43.7a5.356,5.356,0,0,1-2.4.5c-2.8,0-4.2-1.5-4.2-4.6V30.2h-2.7V28h2.7V24.1l2.5-.8V28h4v2.2h-4v8.9a4.352,4.352,0,0,0,.5,2.3,2.14,2.14,0,0,0,1.8.7,3.371,3.371,0,0,0,1.7-.5v2.1Z" fill="#8d7b43"/></g><g id="Group_6" data-name="Group 6"><path id="Path_44" data-name="Path 44" d="M393.6,92.4a14.319,14.319,0,0,1-7.4,1.9,10.026,10.026,0,0,1-7.7-3.1c-2-2-2.9-4.8-2.9-8.1a11.61,11.61,0,0,1,3.3-8.5,11.15,11.15,0,0,1,8.3-3.3,14.119,14.119,0,0,1,6.1,1.2v2.9a11.971,11.971,0,0,0-6.4-1.7,8,8,0,0,0-6.1,2.6,9.323,9.323,0,0,0-2.4,6.7,9.246,9.246,0,0,0,2.2,6.6,7.834,7.834,0,0,0,6,2.4,9.329,9.329,0,0,0,4.5-1V84.8h-4.9V82.4h7.5v10Z" fill="#8d7b43"/><path id="Path_45" data-name="Path 45" d="M404.2,94.3a7.31,7.31,0,0,1-5.6-2.2,8.19,8.19,0,0,1-2.1-5.9,8.252,8.252,0,0,1,2.2-6.2,7.844,7.844,0,0,1,5.9-2.2,6.811,6.811,0,0,1,5.5,2.2,8.956,8.956,0,0,1,2,6.1,8.7,8.7,0,0,1-2.1,6.1A8.565,8.565,0,0,1,404.2,94.3Zm.2-14.5a5.066,5.066,0,0,0-3.9,1.7,6.506,6.506,0,0,0-1.4,4.6,6.445,6.445,0,0,0,1.4,4.4,5.033,5.033,0,0,0,3.9,1.6,4.643,4.643,0,0,0,3.8-1.6,6.89,6.89,0,0,0,1.3-4.5,7,7,0,0,0-1.3-4.6A4.643,4.643,0,0,0,404.4,79.8Z" fill="#8d7b43"/><path id="Path_46" data-name="Path 46" d="M417.8,93.9h-2.5V70.5h2.5Z" fill="#8d7b43"/><path id="Path_47" data-name="Path 47" d="M435.6,93.9H433V91.2h0a6.476,6.476,0,0,1-10.3,1,8.749,8.749,0,0,1-1.8-5.8,9.7,9.7,0,0,1,2-6.3,6.51,6.51,0,0,1,5.3-2.4,5.19,5.19,0,0,1,4.8,2.6h.1V70.5h2.5ZM433,86.8V84.5a4.446,4.446,0,0,0-1.3-3.3,4.08,4.08,0,0,0-3.2-1.3,4.655,4.655,0,0,0-3.7,1.7,7.3,7.3,0,0,0-1.3,4.7,6.318,6.318,0,0,0,1.3,4.3,4.122,4.122,0,0,0,3.4,1.6,4.192,4.192,0,0,0,3.4-1.5A5.519,5.519,0,0,0,433,86.8Z" fill="#8d7b43"/><path id="Path_48" data-name="Path 48" d="M465.2,93.9h-2.9l-2.4-6.2h-9.4l-2.2,6.2h-2.9l8.5-22.2h2.7Zm-6.1-8.5-3.5-9.5a9.588,9.588,0,0,1-.3-1.5h-.1a5.416,5.416,0,0,1-.4,1.5l-3.5,9.5Z" fill="#8d7b43"/><path id="Path_49" data-name="Path 49" d="M469.8,91.6h0l-.1,9.6h-2.5V78.1h2.5v2.8h.1a6.417,6.417,0,0,1,10.3-1.1,9,9,0,0,1,1.7,5.7,9.767,9.767,0,0,1-1.9,6.4,6.51,6.51,0,0,1-5.3,2.4A5.3,5.3,0,0,1,469.8,91.6Zm0-6.4v2.2a4.446,4.446,0,0,0,1.3,3.3,4.433,4.433,0,0,0,6.8-.4,7.923,7.923,0,0,0,1.3-4.9,6.562,6.562,0,0,0-1.2-4.2,4,4,0,0,0-3.3-1.5,4.606,4.606,0,0,0-3.6,1.5A6.394,6.394,0,0,0,469.8,85.2Z" fill="#8d7b43"/><path id="Path_50" data-name="Path 50" d="M487.6,91.6h0l-.1,9.6H485V78.1h2.5v2.8h.1a6.417,6.417,0,0,1,10.3-1.1,9,9,0,0,1,1.7,5.7,9.767,9.767,0,0,1-1.9,6.4,6.51,6.51,0,0,1-5.3,2.4A5.3,5.3,0,0,1,487.6,91.6Zm-.1-6.4v2.2a4.446,4.446,0,0,0,1.3,3.3,4.433,4.433,0,0,0,6.8-.4,7.923,7.923,0,0,0,1.3-4.9,6.562,6.562,0,0,0-1.2-4.2,4,4,0,0,0-3.3-1.5,4.606,4.606,0,0,0-3.6,1.5A7.068,7.068,0,0,0,487.5,85.2Z" fill="#8d7b43"/><path id="Path_51" data-name="Path 51" d="M505.3,93.9h-2.5V70.5h2.5Z" fill="#8d7b43"/><path id="Path_52" data-name="Path 52" d="M510.8,74a1.845,1.845,0,0,1-1.2-.5,1.346,1.346,0,0,1-.5-1.2,1.7,1.7,0,0,1,3.4,0,1.845,1.845,0,0,1-.5,1.2A1.346,1.346,0,0,1,510.8,74Zm1.3,19.9h-2.5V78.1h2.5Z" fill="#8d7b43"/><path id="Path_53" data-name="Path 53" d="M527.2,93.2a8.583,8.583,0,0,1-4.3,1.1,7.089,7.089,0,0,1-5.5-2.2,8.025,8.025,0,0,1-2.1-5.7,8.809,8.809,0,0,1,2.2-6.3,7.834,7.834,0,0,1,6-2.4,8.744,8.744,0,0,1,3.7.8v2.6a6.585,6.585,0,0,0-3.8-1.2,5.281,5.281,0,0,0-4,1.7,6.749,6.749,0,0,0-1.6,4.6,6.178,6.178,0,0,0,1.5,4.4,4.987,4.987,0,0,0,3.9,1.6,6.426,6.426,0,0,0,3.9-1.4v2.4Z" fill="#8d7b43"/><path id="Path_54" data-name="Path 54" d="M541.5,93.9H539V91.4h-.1a5.334,5.334,0,0,1-4.9,2.9,4.924,4.924,0,0,1-3.7-1.3,4.156,4.156,0,0,1-1.3-3.3c0-3,1.7-4.7,5.2-5.2l4.8-.7c0-2.7-1.1-4-3.3-4a8.075,8.075,0,0,0-5.2,2V79.2a9.978,9.978,0,0,1,5.4-1.5c3.7,0,5.6,2,5.6,5.9Zm-2.6-8-3.8.5a7.062,7.062,0,0,0-2.7.9,2.531,2.531,0,0,0-.9,2.2,2.56,2.56,0,0,0,.8,1.9,3.232,3.232,0,0,0,2.2.7,3.87,3.87,0,0,0,3.1-1.3,4.871,4.871,0,0,0,1.2-3.4V85.9Z" fill="#8d7b43"/><path id="Path_55" data-name="Path 55" d="M552.7,93.8a5.356,5.356,0,0,1-2.4.5c-2.8,0-4.2-1.5-4.2-4.6V80.3h-2.7V78.1h2.7V74.2l2.5-.8v4.7h4v2.2h-4v8.9a4.352,4.352,0,0,0,.5,2.3,2.139,2.139,0,0,0,1.8.7,3.371,3.371,0,0,0,1.7-.5v2.1Z" fill="#8d7b43"/><path id="Path_56" data-name="Path 56" d="M556.5,74a1.845,1.845,0,0,1-1.2-.5,1.346,1.346,0,0,1-.5-1.2,1.7,1.7,0,0,1,3.4,0,1.845,1.845,0,0,1-.5,1.2A1.346,1.346,0,0,1,556.5,74Zm1.3,19.9h-2.5V78.1h2.5Z" fill="#8d7b43"/><path id="Path_57" data-name="Path 57" d="M568.7,94.3a7.309,7.309,0,0,1-5.6-2.2,8.189,8.189,0,0,1-2.1-5.9,8.252,8.252,0,0,1,2.2-6.2,7.844,7.844,0,0,1,5.9-2.2,6.811,6.811,0,0,1,5.5,2.2,8.956,8.956,0,0,1,2,6.1,8.7,8.7,0,0,1-2.1,6.1A8.565,8.565,0,0,1,568.7,94.3Zm.1-14.5a5.066,5.066,0,0,0-3.9,1.7,6.506,6.506,0,0,0-1.4,4.6,6.445,6.445,0,0,0,1.4,4.4,5.033,5.033,0,0,0,3.9,1.6,4.643,4.643,0,0,0,3.8-1.6,6.89,6.89,0,0,0,1.3-4.5,7,7,0,0,0-1.3-4.6A4.813,4.813,0,0,0,568.8,79.8Z" fill="#8d7b43"/><path id="Path_58" data-name="Path 58" d="M592.9,93.9h-2.5v-9c0-3.4-1.2-5.1-3.7-5.1a4.314,4.314,0,0,0-3.2,1.4,5.584,5.584,0,0,0-1.2,3.6v9h-2.5V78.1h2.5v2.6h.1a5.692,5.692,0,0,1,5.2-3,4.988,4.988,0,0,1,4,1.7,7.534,7.534,0,0,1,1.4,4.9v9.6Z" fill="#8d7b43"/><path id="Path_59" data-name="Path 59" d="M607.5,93.9h-2.6V71.7h2.6Z" fill="#8d7b43"/><path id="Path_60" data-name="Path 60" d="M625.3,93.9h-2.5v-9c0-3.4-1.2-5.1-3.7-5.1a4.314,4.314,0,0,0-3.2,1.4,5.584,5.584,0,0,0-1.2,3.6v9h-2.5V78.1h2.5v2.6h.1a5.692,5.692,0,0,1,5.2-3,4.988,4.988,0,0,1,4,1.7,7.534,7.534,0,0,1,1.4,4.9v9.6Z" fill="#8d7b43"/><path id="Path_61" data-name="Path 61" d="M636.6,93.8a5.356,5.356,0,0,1-2.4.5c-2.8,0-4.2-1.5-4.2-4.6V80.3h-2.7V78.1H630V74.2l2.5-.8v4.7h4v2.2h-4v8.9a4.352,4.352,0,0,0,.5,2.3,2.139,2.139,0,0,0,1.8.7,3.371,3.371,0,0,0,1.7-.5v2.1Z" fill="#8d7b43"/><path id="Path_62" data-name="Path 62" d="M651.8,86.6H640.6a5.809,5.809,0,0,0,1.4,4.1,4.754,4.754,0,0,0,3.7,1.4,7.614,7.614,0,0,0,4.9-1.8v2.4a9.187,9.187,0,0,1-5.5,1.5,6.661,6.661,0,0,1-5.3-2.2c-1.3-1.4-1.9-3.5-1.9-6.1a8.44,8.44,0,0,1,2.1-6,6.5,6.5,0,0,1,5.2-2.3,5.966,5.966,0,0,1,4.8,2,8.509,8.509,0,0,1,1.7,5.6v1.4Zm-2.6-2.1a4.954,4.954,0,0,0-1.1-3.4,3.7,3.7,0,0,0-2.9-1.2,4.158,4.158,0,0,0-3.1,1.3,5.617,5.617,0,0,0-1.5,3.4h8.6Z" fill="#8d7b43"/><path id="Path_63" data-name="Path 63" d="M668.3,92.7q0,8.7-8.4,8.7a11.3,11.3,0,0,1-5.1-1.1V97.8a10.557,10.557,0,0,0,5.1,1.5c3.9,0,5.9-2.1,5.9-6.2V91.4h-.1a6.539,6.539,0,0,1-10.3.9,8.468,8.468,0,0,1-1.8-5.7,9.767,9.767,0,0,1,1.9-6.4,6.51,6.51,0,0,1,5.3-2.4,5.409,5.409,0,0,1,4.8,2.6h.1V78.2h2.5V92.7Zm-2.5-5.9V84.5a4.44,4.44,0,0,0-4.5-4.5,4.517,4.517,0,0,0-3.7,1.7,7.423,7.423,0,0,0-1.3,4.8,6.043,6.043,0,0,0,1.3,4.2,4.122,4.122,0,0,0,3.4,1.6,4.539,4.539,0,0,0,3.5-1.5A7.068,7.068,0,0,0,665.8,86.8Z" fill="#8d7b43"/><path id="Path_64" data-name="Path 64" d="M680.9,80.6a3.312,3.312,0,0,0-1.9-.5,3.174,3.174,0,0,0-2.7,1.5,7.234,7.234,0,0,0-1.1,4.2v8.1h-2.5V78.1h2.5v3.3h.1a5.39,5.39,0,0,1,1.7-2.6,3.84,3.84,0,0,1,2.5-.9,4.872,4.872,0,0,1,1.5.2v2.5Z" fill="#8d7b43"/><path id="Path_65" data-name="Path 65" d="M694.1,93.9h-2.5V91.4h-.1a5.334,5.334,0,0,1-4.9,2.9,4.924,4.924,0,0,1-3.7-1.3,4.156,4.156,0,0,1-1.3-3.3c0-3,1.7-4.7,5.2-5.2l4.8-.7c0-2.7-1.1-4-3.3-4a8.075,8.075,0,0,0-5.2,2V79.2a9.978,9.978,0,0,1,5.4-1.5c3.7,0,5.6,2,5.6,5.9Zm-2.6-8-3.8.5a7.062,7.062,0,0,0-2.7.9,2.531,2.531,0,0,0-.9,2.2,2.56,2.56,0,0,0,.8,1.9,3.232,3.232,0,0,0,2.2.7,3.87,3.87,0,0,0,3.1-1.3,4.871,4.871,0,0,0,1.2-3.4V85.9Z" fill="#8d7b43"/><path id="Path_66" data-name="Path 66" d="M705.3,93.8a5.356,5.356,0,0,1-2.4.5c-2.8,0-4.2-1.5-4.2-4.6V80.3H696V78.1h2.7V74.2l2.5-.8v4.7h4v2.2h-4v8.9a4.352,4.352,0,0,0,.5,2.3,2.139,2.139,0,0,0,1.8.7,3.371,3.371,0,0,0,1.7-.5v2.1Z" fill="#8d7b43"/><path id="Path_67" data-name="Path 67" d="M709.2,74a1.845,1.845,0,0,1-1.2-.5,1.346,1.346,0,0,1-.5-1.2,1.7,1.7,0,0,1,3.4,0,1.845,1.845,0,0,1-.5,1.2A1.584,1.584,0,0,1,709.2,74Zm1.2,19.9h-2.5V78.1h2.5Z" fill="#8d7b43"/><path id="Path_68" data-name="Path 68" d="M721.3,94.3a7.309,7.309,0,0,1-5.6-2.2,8.189,8.189,0,0,1-2.1-5.9,8.252,8.252,0,0,1,2.2-6.2,7.844,7.844,0,0,1,5.9-2.2,6.811,6.811,0,0,1,5.5,2.2,8.956,8.956,0,0,1,2,6.1,8.7,8.7,0,0,1-2.1,6.1A8.565,8.565,0,0,1,721.3,94.3Zm.2-14.5a5.066,5.066,0,0,0-3.9,1.7,6.506,6.506,0,0,0-1.4,4.6,6.445,6.445,0,0,0,1.4,4.4,5.033,5.033,0,0,0,3.9,1.6,4.643,4.643,0,0,0,3.8-1.6,6.89,6.89,0,0,0,1.3-4.5,7,7,0,0,0-1.3-4.6A4.963,4.963,0,0,0,721.5,79.8Z" fill="#8d7b43"/><path id="Path_69" data-name="Path 69" d="M745.5,93.9H743v-9c0-3.4-1.2-5.1-3.7-5.1a4.314,4.314,0,0,0-3.2,1.4,5.584,5.584,0,0,0-1.2,3.6v9h-2.5V78.1h2.5v2.6h.1a5.692,5.692,0,0,1,5.2-3,4.988,4.988,0,0,1,4,1.7,7.534,7.534,0,0,1,1.4,4.9v9.6Z" fill="#8d7b43"/></g><g id="Group_7" data-name="Group 7"><path id="Path_70" data-name="Path 70" d="M393.6,143a14.319,14.319,0,0,1-7.4,1.9,10.026,10.026,0,0,1-7.7-3.1c-2-2-2.9-4.8-2.9-8.1a11.61,11.61,0,0,1,3.3-8.5,11.15,11.15,0,0,1,8.3-3.3,14.119,14.119,0,0,1,6.1,1.2V126a11.971,11.971,0,0,0-6.4-1.7,8,8,0,0,0-6.1,2.6,10.768,10.768,0,0,0-.2,13.3,7.834,7.834,0,0,0,6,2.4,9.329,9.329,0,0,0,4.5-1v-6.2h-4.9V133h7.5v10Z" fill="#8d7b43"/><path id="Path_71" data-name="Path 71" d="M404.2,144.9a7.31,7.31,0,0,1-5.6-2.2,9.587,9.587,0,0,1,.1-12.1,7.844,7.844,0,0,1,5.9-2.2,6.811,6.811,0,0,1,5.5,2.2,8.956,8.956,0,0,1,2,6.1,8.7,8.7,0,0,1-2.1,6.1A8.565,8.565,0,0,1,404.2,144.9Zm.2-14.5a5.066,5.066,0,0,0-3.9,1.7,7.929,7.929,0,0,0,0,9,5.033,5.033,0,0,0,3.9,1.6,4.643,4.643,0,0,0,3.8-1.6,6.89,6.89,0,0,0,1.3-4.5,7,7,0,0,0-1.3-4.6A4.643,4.643,0,0,0,404.4,130.4Z" fill="#8d7b43"/><path id="Path_72" data-name="Path 72" d="M417.8,144.5h-2.5V121h2.5Z" fill="#8d7b43"/><path id="Path_73" data-name="Path 73" d="M435.6,144.5H433v-2.7h0a6.476,6.476,0,0,1-10.3,1,8.749,8.749,0,0,1-1.8-5.8,9.7,9.7,0,0,1,2-6.3,6.51,6.51,0,0,1,5.3-2.4,5.19,5.19,0,0,1,4.8,2.6h.1V121h2.5Zm-2.6-7.2V135a4.446,4.446,0,0,0-1.3-3.3,4.08,4.08,0,0,0-3.2-1.3,4.655,4.655,0,0,0-3.7,1.7,7.3,7.3,0,0,0-1.3,4.7,6.318,6.318,0,0,0,1.3,4.3,4.122,4.122,0,0,0,3.4,1.6,4.192,4.192,0,0,0,3.4-1.5A5.21,5.21,0,0,0,433,137.3Z" fill="#8d7b43"/><path id="Path_74" data-name="Path 74" d="M463.1,143.6a12.52,12.52,0,0,1-6.1,1.3,9.666,9.666,0,0,1-7.6-3.1,11.219,11.219,0,0,1-2.9-8,11.863,11.863,0,0,1,3.2-8.6,10.7,10.7,0,0,1,8.1-3.3,12.776,12.776,0,0,1,5.2.9v2.8a10.416,10.416,0,0,0-5.3-1.3,8.069,8.069,0,0,0-6.2,2.6,9.573,9.573,0,0,0-2.4,6.8,9.152,9.152,0,0,0,2.2,6.5,7.543,7.543,0,0,0,5.8,2.4,10.889,10.889,0,0,0,5.8-1.5v2.5Z" fill="#8d7b43"/><path id="Path_75" data-name="Path 75" d="M468.9,144.5h-2.5V121h2.5Z" fill="#8d7b43"/><path id="Path_76" data-name="Path 76" d="M479.8,144.9a7.31,7.31,0,0,1-5.6-2.2,9.587,9.587,0,0,1,.1-12.1,7.844,7.844,0,0,1,5.9-2.2,6.811,6.811,0,0,1,5.5,2.2,8.956,8.956,0,0,1,2,6.1,8.7,8.7,0,0,1-2.1,6.1A8.564,8.564,0,0,1,479.8,144.9Zm.2-14.5a5.066,5.066,0,0,0-3.9,1.7,7.017,7.017,0,0,0-1.4,4.6,6.445,6.445,0,0,0,1.4,4.4,4.849,4.849,0,0,0,3.9,1.6,4.643,4.643,0,0,0,3.8-1.6,6.89,6.89,0,0,0,1.3-4.5,7,7,0,0,0-1.3-4.6A4.515,4.515,0,0,0,480,130.4Z" fill="#8d7b43"/><path id="Path_77" data-name="Path 77" d="M503.7,144.5h-2.5V142h-.1a5.334,5.334,0,0,1-4.9,2.9c-3.8,0-5.7-2.3-5.7-6.8v-9.5H493v9.1c0,3.3,1.3,5,3.8,5a4.1,4.1,0,0,0,3.1-1.4,5.219,5.219,0,0,0,1.2-3.6v-9.1h2.5v15.9Z" fill="#8d7b43"/><path id="Path_78" data-name="Path 78" d="M521.5,144.5H519v-2.7h-.1a6.476,6.476,0,0,1-10.3,1,8.749,8.749,0,0,1-1.8-5.8,9.7,9.7,0,0,1,2-6.3,6.51,6.51,0,0,1,5.3-2.4,5.19,5.19,0,0,1,4.8,2.6h.1V121h2.5Zm-2.5-7.2V135a4.446,4.446,0,0,0-1.3-3.3,4.08,4.08,0,0,0-3.2-1.3,4.655,4.655,0,0,0-3.7,1.7,7.3,7.3,0,0,0-1.3,4.7,6.318,6.318,0,0,0,1.3,4.3,4.122,4.122,0,0,0,3.4,1.6,4.192,4.192,0,0,0,3.4-1.5A5.638,5.638,0,0,0,519,137.3Z" fill="#8d7b43"/><path id="Path_79" data-name="Path 79" d="M536.5,136.1v8.4h-2.6V122.3H540a8.22,8.22,0,0,1,5.5,1.7,6.325,6.325,0,0,1,2,4.9,6.734,6.734,0,0,1-2.2,5.2,8.138,8.138,0,0,1-5.9,2h-2.9Zm0-11.5v9.1h2.7a6.081,6.081,0,0,0,4.1-1.2,4.513,4.513,0,0,0,1.4-3.5c0-2.9-1.7-4.4-5.2-4.4Z" fill="#8d7b43"/><path id="Path_80" data-name="Path 80" d="M553,144.5h-2.5V121H553Z" fill="#8d7b43"/><path id="Path_81" data-name="Path 81" d="M568.6,144.5h-2.5V142H566a5.334,5.334,0,0,1-4.9,2.9,4.924,4.924,0,0,1-3.7-1.3,4.156,4.156,0,0,1-1.3-3.3c0-3,1.7-4.7,5.2-5.2l4.8-.7c0-2.7-1.1-4-3.3-4a8.075,8.075,0,0,0-5.2,2v-2.6a9.978,9.978,0,0,1,5.4-1.5c3.7,0,5.6,2,5.6,5.9Zm-2.5-8-3.8.5a7.063,7.063,0,0,0-2.7.9,2.531,2.531,0,0,0-.9,2.2,2.56,2.56,0,0,0,.8,1.9,3.232,3.232,0,0,0,2.2.7,3.87,3.87,0,0,0,3.1-1.3A4.871,4.871,0,0,0,566,138v-1.5Z" fill="#8d7b43"/><path id="Path_82" data-name="Path 82" d="M579.9,144.3a5.356,5.356,0,0,1-2.4.5c-2.8,0-4.2-1.5-4.2-4.6v-9.4h-2.7v-2.2h2.7v-3.9l2.5-.8v4.7h4v2.2h-4v8.9a4.352,4.352,0,0,0,.5,2.3,2.139,2.139,0,0,0,1.8.7,3.371,3.371,0,0,0,1.7-.5v2.1Z" fill="#8d7b43"/><path id="Path_83" data-name="Path 83" d="M590.2,123.2a3.287,3.287,0,0,0-1.7-.4c-1.8,0-2.7,1.1-2.7,3.4v2.4h3.7v2.2h-3.7v13.7h-2.5V130.8h-2.7v-2.2h2.7V126a5.3,5.3,0,0,1,1.4-3.9,4.82,4.82,0,0,1,3.6-1.4,4.178,4.178,0,0,1,1.8.3v2.2Z" fill="#8d7b43"/><path id="Path_84" data-name="Path 84" d="M598,144.9a7.309,7.309,0,0,1-5.6-2.2,9.587,9.587,0,0,1,.1-12.1,7.844,7.844,0,0,1,5.9-2.2,6.811,6.811,0,0,1,5.5,2.2,8.956,8.956,0,0,1,2,6.1,8.7,8.7,0,0,1-2.1,6.1A8.382,8.382,0,0,1,598,144.9Zm.2-14.5a5.066,5.066,0,0,0-3.9,1.7,7.929,7.929,0,0,0,0,9,5.033,5.033,0,0,0,3.9,1.6,4.643,4.643,0,0,0,3.8-1.6,6.89,6.89,0,0,0,1.3-4.5A7,7,0,0,0,602,132,4.515,4.515,0,0,0,598.2,130.4Z" fill="#8d7b43"/><path id="Path_85" data-name="Path 85" d="M617.4,131.2a3.312,3.312,0,0,0-1.9-.5,3.174,3.174,0,0,0-2.7,1.5,7.234,7.234,0,0,0-1.1,4.2v8.1h-2.5V128.6h2.5v3.3h.1a5.39,5.39,0,0,1,1.7-2.6,3.84,3.84,0,0,1,2.5-.9,4.872,4.872,0,0,1,1.5.2v2.6Z" fill="#8d7b43"/><path id="Path_86" data-name="Path 86" d="M641.8,144.5h-2.5v-9.1a7.161,7.161,0,0,0-.8-3.8,3.04,3.04,0,0,0-2.7-1.2,3.472,3.472,0,0,0-2.8,1.5,5.516,5.516,0,0,0-1.1,3.6v9h-2.5v-9.4c0-3.1-1.2-4.7-3.6-4.7a3.651,3.651,0,0,0-2.8,1.4,5.928,5.928,0,0,0-1.1,3.6v9h-2.5V128.5h2.5V131h.1a5.441,5.441,0,0,1,4.9-2.9,4.47,4.47,0,0,1,2.8.9,4.63,4.63,0,0,1,1.7,2.4,5.661,5.661,0,0,1,5.3-3.3c3.5,0,5.2,2.2,5.2,6.5v9.9Z" fill="#8d7b43"/></g><g id="Group_8" data-name="Group 8"><path id="Path_87" data-name="Path 87" d="M376,193.7v-3.1a5.669,5.669,0,0,0,1.3.8,12.053,12.053,0,0,0,3.1,1,8.084,8.084,0,0,0,1.5.1,5.968,5.968,0,0,0,3.6-.9,2.971,2.971,0,0,0,1.2-2.6,2.934,2.934,0,0,0-.4-1.6,6,6,0,0,0-1.1-1.2,12.551,12.551,0,0,0-1.7-1.1c-.6-.3-1.3-.7-2.1-1.1s-1.5-.8-2.2-1.2a8.319,8.319,0,0,1-1.8-1.3,6.1,6.1,0,0,1-1.2-1.6,4.813,4.813,0,0,1-.4-2.2,4.406,4.406,0,0,1,.7-2.6,5.409,5.409,0,0,1,1.8-1.9,8.217,8.217,0,0,1,2.5-1.1,13.505,13.505,0,0,1,2.8-.4,11.239,11.239,0,0,1,4.8.8v2.9a8.791,8.791,0,0,0-5.1-1.4,9.853,9.853,0,0,0-1.7.2,3.387,3.387,0,0,0-1.5.6,5.242,5.242,0,0,0-1.1,1,2.41,2.41,0,0,0-.4,1.5,3.34,3.34,0,0,0,.3,1.5,3.126,3.126,0,0,0,.9,1.1,9.739,9.739,0,0,0,1.5,1c.6.3,1.3.7,2.1,1.1s1.5.8,2.3,1.2a13.3,13.3,0,0,1,1.9,1.4,5.936,5.936,0,0,1,1.3,1.8,5.091,5.091,0,0,1,.5,2.2,6.088,6.088,0,0,1-.6,2.8,5.194,5.194,0,0,1-1.7,1.9,6.913,6.913,0,0,1-2.5,1,14.534,14.534,0,0,1-3,.3,6.15,6.15,0,0,1-1.3-.1c-.5-.1-1-.1-1.6-.2a8.332,8.332,0,0,1-1.5-.4A1.175,1.175,0,0,1,376,193.7Z" fill="#828282"/><path id="Path_88" data-name="Path 88" d="M393.9,174.7a1.845,1.845,0,0,1-1.2-.5,1.7,1.7,0,1,1,2.9-1.2,1.845,1.845,0,0,1-.5,1.2A1.346,1.346,0,0,1,393.9,174.7Zm1.3,19.9h-2.5V178.7h2.5Z" fill="#828282"/><path id="Path_89" data-name="Path 89" d="M402,194.6h-2.5V171.1H402Z" fill="#828282"/><path id="Path_90" data-name="Path 90" d="M418.7,178.7l-6.3,15.9h-2.5l-6-15.9h2.8l4,11.5a12.3,12.3,0,0,1,.6,2.2h.1a14.19,14.19,0,0,1,.5-2.2l4.2-11.6h2.6Z" fill="#828282"/><path id="Path_91" data-name="Path 91" d="M433.3,187.3H422.1a5.81,5.81,0,0,0,1.4,4.1,4.754,4.754,0,0,0,3.7,1.4,7.614,7.614,0,0,0,4.9-1.8v2.4a9.187,9.187,0,0,1-5.5,1.5,6.661,6.661,0,0,1-5.3-2.2c-1.3-1.4-1.9-3.5-1.9-6.1a8.44,8.44,0,0,1,2.1-6,6.5,6.5,0,0,1,5.2-2.3,5.966,5.966,0,0,1,4.8,2,8.509,8.509,0,0,1,1.7,5.6v1.4Zm-2.6-2.1a4.954,4.954,0,0,0-1.1-3.4,3.7,3.7,0,0,0-2.9-1.2,4.158,4.158,0,0,0-3.1,1.3,5.617,5.617,0,0,0-1.5,3.4h8.6Z" fill="#828282"/><path id="Path_92" data-name="Path 92" d="M444.5,181.3a3.312,3.312,0,0,0-1.9-.5,3.174,3.174,0,0,0-2.7,1.5,7.234,7.234,0,0,0-1.1,4.2v8.1h-2.5V178.7h2.5V182h.1a5.389,5.389,0,0,1,1.7-2.6,3.84,3.84,0,0,1,2.5-.9,4.872,4.872,0,0,1,1.5.2v2.6Z" fill="#828282"/><path id="Path_93" data-name="Path 93" d="M454.5,194.6V172.4h6.1q11.7,0,11.7,10.8a11,11,0,0,1-3.3,8.3,12.047,12.047,0,0,1-8.7,3.1h-5.8Zm2.6-19.9v17.5h3.3a9.639,9.639,0,0,0,6.8-2.3,8.765,8.765,0,0,0,2.4-6.6c0-5.7-3-8.5-9.1-8.5h-3.4Z" fill="#828282"/><path id="Path_94" data-name="Path 94" d="M488.3,187.3H477.1a5.81,5.81,0,0,0,1.4,4.1,4.839,4.839,0,0,0,3.8,1.4,7.614,7.614,0,0,0,4.9-1.8v2.4a9.187,9.187,0,0,1-5.5,1.5,6.661,6.661,0,0,1-5.3-2.2c-1.3-1.4-1.9-3.5-1.9-6.1a8.44,8.44,0,0,1,2.1-6,6.5,6.5,0,0,1,5.2-2.3,5.966,5.966,0,0,1,4.8,2,8.509,8.509,0,0,1,1.7,5.6Zm-2.6-2.1a4.954,4.954,0,0,0-1.1-3.4,3.7,3.7,0,0,0-2.9-1.2,4.158,4.158,0,0,0-3.1,1.3,5.617,5.617,0,0,0-1.5,3.4h8.6Z" fill="#828282"/><path id="Path_95" data-name="Path 95" d="M503.7,178.7l-6.3,15.9h-2.5l-6-15.9h2.8l4,11.5a12.3,12.3,0,0,1,.6,2.2h.1a14.19,14.19,0,0,1,.5-2.2l4.2-11.6h2.6Z" fill="#828282"/><path id="Path_96" data-name="Path 96" d="M514.9,195a9.666,9.666,0,0,1-7.6-3.1,11.58,11.58,0,0,1-2.8-8.1,12.6,12.6,0,0,1,2.9-8.6,10.242,10.242,0,0,1,7.9-3.2,9.382,9.382,0,0,1,7.4,3.1,11.58,11.58,0,0,1,2.8,8.1,12.421,12.421,0,0,1-2.9,8.6A10.1,10.1,0,0,1,514.9,195Zm.1-20.6a7.227,7.227,0,0,0-5.7,2.5,9.58,9.58,0,0,0-2.2,6.6,10.043,10.043,0,0,0,2.1,6.6,6.891,6.891,0,0,0,5.6,2.5,7.4,7.4,0,0,0,5.8-2.4,9.783,9.783,0,0,0,2.1-6.7,10.594,10.594,0,0,0-2-6.8A6.984,6.984,0,0,0,515,174.4Z" fill="#828282"/><path id="Path_97" data-name="Path 97" d="M531.2,192.3h0l-.1,9.6h-2.5V178.7h2.5v2.8h.1a6.417,6.417,0,0,1,10.3-1.1,9,9,0,0,1,1.7,5.7,9.767,9.767,0,0,1-1.9,6.4,6.51,6.51,0,0,1-5.3,2.4A5.029,5.029,0,0,1,531.2,192.3Zm-.1-6.4v2.2a4.446,4.446,0,0,0,1.3,3.3,4.433,4.433,0,0,0,6.8-.4,7.923,7.923,0,0,0,1.3-4.9,6.562,6.562,0,0,0-1.2-4.2,4,4,0,0,0-3.3-1.5,4.606,4.606,0,0,0-3.6,1.5A7.068,7.068,0,0,0,531.1,185.9Z" fill="#828282"/><path id="Path_98" data-name="Path 98" d="M545.4,194v-2.7a7.672,7.672,0,0,0,4.6,1.5c2.2,0,3.3-.7,3.3-2.2a2.016,2.016,0,0,0-.3-1.1,2.047,2.047,0,0,0-.8-.8,10.913,10.913,0,0,0-1.1-.6c-.4-.2-.9-.4-1.4-.6-.7-.3-1.3-.6-1.9-.8a4.485,4.485,0,0,1-1.3-1,4.184,4.184,0,0,1-.8-1.2,3.808,3.808,0,0,1-.3-1.6,4.552,4.552,0,0,1,.5-2,3.159,3.159,0,0,1,1.4-1.4,6.632,6.632,0,0,1,1.9-.9,8.524,8.524,0,0,1,2.3-.3,8.729,8.729,0,0,1,3.7.7v2.6a6.9,6.9,0,0,0-4-1.1,5.067,5.067,0,0,0-1.3.2,3.128,3.128,0,0,0-1,.5,1.344,1.344,0,0,0-.6.7,2.921,2.921,0,0,0-.2.9,2.509,2.509,0,0,0,.2,1,2.311,2.311,0,0,0,.7.7,5.423,5.423,0,0,0,1.1.6c.4.2.9.4,1.4.6.7.3,1.3.5,1.9.8a5.021,5.021,0,0,1,1.4,1,4.7,4.7,0,0,1,.9,1.2,3.984,3.984,0,0,1,.3,1.7,3.939,3.939,0,0,1-.5,2,3.159,3.159,0,0,1-1.4,1.4,6.105,6.105,0,0,1-2,.9,9.283,9.283,0,0,1-2.4.3A8.3,8.3,0,0,1,545.4,194Z" fill="#828282"/></g></g></g></svg>