<svg xmlns="http://www.w3.org/2000/svg" width="97" height="50" viewBox="0 0 97 50"><g transform="translate(-0.257 0.147)"><rect width="17" height="9" rx="4.5" transform="translate(8.257 -0.147)" fill="#ade2c3"/><rect width="25" height="9" rx="4.5" transform="translate(0.257 19.853)" fill="#ade2c3"/><rect width="10" height="9" rx="4.5" transform="translate(12.257 40.853)" fill="#ade2c3"/><path d="M0,0H67a0,0,0,0,1,0,0V36a5,5,0,0,1-5,5H5a5,5,0,0,1-5-5V0A0,0,0,0,1,0,0Z" transform="translate(30.257 8.853)" fill="#34cb73"/><path d="M5,0H62a5,5,0,0,1,5,5V9a0,0,0,0,1,0,0H0A0,0,0,0,1,0,9V5A5,5,0,0,1,5,0Z" transform="translate(30.257 -0.147)" fill="#ade2c3"/><path d="M-392.907,1864.117l8.316-9.758,11.522,4.348,9.194-10.452" transform="translate(443.198 -1828.631)" fill="none" stroke="#cdf3dd" stroke-linecap="round" stroke-linejoin="round" stroke-width="2.5"/></g></svg>