<svg xmlns="http://www.w3.org/2000/svg" xmlns:xlink="http://www.w3.org/1999/xlink" width="78.851" height="66.437" viewBox="0 0 78.851 66.437"><defs><clipPath id="a"><rect width="50.829" height="66.437" fill="none"/></clipPath></defs><g transform="translate(-0.002)"><rect width="26.404" height="12.002" rx="2" transform="translate(10.804 4.802)" fill="#99a3e1"/><rect width="26.404" height="10.802" rx="2" transform="translate(0.002 26.405)" fill="#99a3e1"/><rect width="26.404" height="10.802" rx="2" transform="translate(10.804 49.209)" fill="#99a3e1"/><g transform="translate(28.024 0)"><g transform="translate(0 0)" clip-path="url(#a)"><path d="M26.862.525.217,39.081a1.212,1.212,0,0,0,1.071,1.9l21.017-1.273V65.222a1.213,1.213,0,0,0,2.226.668l26.1-39.621a1.212,1.212,0,0,0-1.013-1.879H29.072V1.215a1.212,1.212,0,0,0-2.21-.69" transform="translate(0 -0.001)" fill="#7989ff"/></g></g></g></svg>