<?xml version="1.0" encoding="UTF-8"?>
<svg id="Layer_1" data-name="Layer 1" xmlns="http://www.w3.org/2000/svg" version="1.1" xmlns:xlink="http://www.w3.org/1999/xlink" viewBox="0 0 500 500">
  <defs>
    <style>
      .cls-1 {
        stroke: #fba928;
      }

      .cls-1, .cls-2, .cls-3, .cls-4, .cls-5 {
        fill: none;
      }

      .cls-1, .cls-2, .cls-4 {
        stroke-linecap: round;
        stroke-linejoin: round;
      }

      .cls-1, .cls-6, .cls-3 {
        stroke-width: 1.5px;
      }

      .cls-7, .cls-8, .cls-9, .cls-10, .cls-11, .cls-12, .cls-13, .cls-14, .cls-15, .cls-16, .cls-17 {
        stroke-width: 0px;
      }

      .cls-7, .cls-10, .cls-13, .cls-15 {
        fill-rule: evenodd;
      }

      .cls-7, .cls-6, .cls-18, .cls-17 {
        fill: #fff;
      }

      .cls-8 {
        fill: url(#linear-gradient);
      }

      .cls-9 {
        fill: #000;
      }

      .cls-2 {
        stroke-width: 35px;
      }

      .cls-2, .cls-18 {
        stroke: #010101;
      }

      .cls-10, .cls-14 {
        fill: #fba92a;
      }

      .cls-6, .cls-3, .cls-18, .cls-5 {
        stroke-miterlimit: 10;
      }

      .cls-6, .cls-3, .cls-5 {
        stroke: #000;
      }

      .cls-19 {
        isolation: isolate;
      }

      .cls-11, .cls-15 {
        fill: #fba929;
      }

      .cls-18 {
        stroke-width: 1.1px;
      }

      .cls-4 {
        stroke: #fff;
      }

      .cls-12, .cls-13 {
        fill: #010101;
      }

      .cls-5 {
        stroke-width: .2px;
      }

      .cls-16 {
        fill: #fba928;
      }
    </style>
    <linearGradient id="linear-gradient" x1="-544.2" y1="388.6" x2="-522" y2="412" gradientUnits="userSpaceOnUse">
      <stop offset="0" stop-color="#fff" stop-opacity=".5"/>
      <stop offset=".4" stop-color="rgba(255, 255, 255, .7)" stop-opacity=".7"/>
      <stop offset=".6" stop-color="rgba(255, 255, 255, .9)" stop-opacity=".9"/>
      <stop offset=".9" stop-color="rgba(255, 255, 255, 1)" stop-opacity="1"/>
      <stop offset="1" stop-color="#fff"/>
    </linearGradient>
  </defs>
  <g>
    <g>
      <g class="cls-19">
        <path class="cls-17" d="M-1066.2,267h26v-9c0-3.8-3.1-6.8-6.8-6.8h-4.1l-2.3,3.9-2.3-3.9h-3.8c-3.7,0-6.8,3-6.8,6.8v9Z"/>
        <path class="cls-9" d="M-1039.4,267.7h-27.4v-9.7c0-4.1,3.4-7.5,7.5-7.5h4.2l1.9,3.2,1.9-3.2h4.5c4.1,0,7.5,3.4,7.5,7.5v9.7ZM-1065.5,266.3h24.6v-8.3c0-3.4-2.7-6.1-6.1-6.1h-3.7l-2.7,4.6-2.7-4.6h-3.4c-3.4,0-6.1,2.7-6.1,6.1v8.3Z"/>
      </g>
      <g class="cls-19">
        <circle class="cls-17" cx="-1053.2" cy="241.9" r="6.4"/>
        <path class="cls-9" d="M-1053.2,249c-3.9,0-7.2-3.2-7.2-7.2s3.2-7.2,7.2-7.2,7.2,3.2,7.2,7.2-3.2,7.2-7.2,7.2ZM-1053.2,236.1c-3.2,0-5.7,2.6-5.7,5.7s2.6,5.7,5.7,5.7,5.7-2.6,5.7-5.7-2.6-5.7-5.7-5.7Z"/>
      </g>
    </g>
    <g>
      <g class="cls-19">
        <path class="cls-17" d="M-1025.3,256.2v5.8h-11.4v-5.9c0-1.7-.7-3.2-1.9-4.3.3,0,.5,0,.8,0h2.5l1.5,2.5,1.5-2.5h2.6c2.4,0,4.4,2,4.4,4.4Z"/>
        <path class="cls-9" d="M-1024.6,262.7h-12.8v-6.6c0-1.4-.6-2.8-1.6-3.7l-1.1-1,1.4-.2c.3,0,.6,0,.9,0h2.9l1.1,1.8,1.1-1.8h3c2.8,0,5.1,2.3,5.1,5.1v6.5ZM-1036,261.3h9.9v-5.1c0-2-1.7-3.7-3.7-3.7h-2.2l-1.9,3.2-1.9-3.2h-1.4c.7,1.1,1.1,2.3,1.1,3.6v5.2Z"/>
      </g>
      <g class="cls-19">
        <circle class="cls-17" cx="-1033.8" cy="245.8" r="4.2"/>
        <path class="cls-9" d="M-1033.8,250.7c-2.7,0-4.9-2.2-4.9-4.9s2.2-4.9,4.9-4.9,4.9,2.2,4.9,4.9-2.2,4.9-4.9,4.9ZM-1033.8,242.4c-1.9,0-3.5,1.6-3.5,3.5s1.6,3.5,3.5,3.5,3.5-1.6,3.5-3.5-1.6-3.5-3.5-3.5Z"/>
      </g>
    </g>
    <g>
      <g class="cls-19">
        <path class="cls-17" d="M-1081,256.2v5.8s11.4,0,11.4,0v-5.9c0-1.7.7-3.2,1.9-4.3-.3,0-.5,0-.8,0h-2.5s-1.5,2.5-1.5,2.5l-1.5-2.5h-2.6c-2.4,0-4.4,2-4.4,4.4Z"/>
        <path class="cls-9" d="M-1068.9,262.7h-12.8v-6.5c0-2.8,2.3-5.1,5.1-5.1h3l1.1,1.8,1.1-1.8h2.9c.3,0,.6,0,.9,0l1.4.2-1.1,1c-1,.9-1.6,2.3-1.6,3.7v6.6ZM-1080.3,261.3h9.9v-5.2c0-1.3.4-2.6,1.1-3.6h-1.4l-1.9,3.2-1.9-3.2h-2.2c-2,0-3.7,1.7-3.7,3.7v5.1Z"/>
      </g>
      <g class="cls-19">
        <circle class="cls-17" cx="-1072.5" cy="245.8" r="4.2"/>
        <path class="cls-9" d="M-1072.5,250.7c-2.7,0-4.9-2.2-4.9-4.9s2.2-4.9,4.9-4.9,4.9,2.2,4.9,4.9-2.2,4.9-4.9,4.9ZM-1072.5,242.4c-1.9,0-3.5,1.6-3.5,3.5s1.6,3.5,3.5,3.5,3.5-1.6,3.5-3.5-1.6-3.5-3.5-3.5Z"/>
      </g>
    </g>
    <path class="cls-14" d="M-1053.2,217.8l1.6,4.9c0,0,.1.2.2.2h5.2l-4.2,3.1c0,0-.1.2,0,.3l1.6,4.9-4.2-3.1c0,0-.2,0-.3,0l-4.2,3.1,1.6-4.9c0,0,0-.2,0-.3l-4.2-3.1h5.2c.1,0,.2,0,.2-.2l1.6-4.9Z"/>
    <g>
      <path class="cls-14" d="M-1053.2,214.4c-.4,0-.7-.3-.7-.7v-4.8c0-.4.3-.7.7-.7s.7.3.7.7v4.8c0,.4-.3.7-.7.7Z"/>
      <path class="cls-14" d="M-1047.6,218.6c-.2,0-.4,0-.5-.2-.3-.3-.2-.8,0-1l3.6-3.2c.3-.3.8-.2,1,0,.3.3.2.8,0,1l-3.6,3.2c-.1.1-.3.2-.5.2Z"/>
      <path class="cls-14" d="M-1058.7,218.6c-.2,0-.3,0-.5-.2l-3.6-3.2c-.3-.3-.3-.7,0-1,.3-.3.7-.3,1,0l3.6,3.2c.3.3.3.7,0,1-.1.2-.3.2-.5.2Z"/>
    </g>
  </g>
  <g>
    <g>
      <g class="cls-19">
        <path class="cls-17" d="M-910.6,254v-6.5c0-4.7,3.8-8.5,8.5-8.5h4.7l2.8,4.9,2.8-4.9h5.1c4.7,0,8.5,3.8,8.5,8.5v11.1h-32.3v-4.6Z"/>
        <path class="cls-9" d="M-877.8,259.1h-33.3v-11.6c0-4.9,4-8.9,8.9-8.9h5l2.5,4.4,2.5-4.4h5.4c4.9,0,8.9,4,8.9,8.9v11.6ZM-909.6,257.8h30.3v-10.3c0-4.2-3.4-7.6-7.7-7.6h-4.6l-3,5.2-3-5.2h-4.3c-4.2,0-7.7,3.3-7.7,7.6v10.3Z"/>
      </g>
      <g class="cls-19">
        <circle class="cls-17" cx="-894.5" cy="227.5" r="8"/>
        <path class="cls-9" d="M-894.5,236c-4.7,0-8.5-3.8-8.5-8.5s3.8-8.5,8.5-8.5,8.5,3.8,8.5,8.5-3.8,8.5-8.5,8.5ZM-894.5,220.2c-4,0-7.2,3.2-7.2,7.2s3.2,7.2,7.2,7.2,7.2-3.2,7.2-7.2-3.2-7.2-7.2-7.2Z"/>
      </g>
    </g>
    <g>
      <path class="cls-14" d="M-851.4,218.4v22.8c0,1-.8,1.7-1.7,1.7h-22.9c-.2,0-.4,0-.5-.3-.7-1.2-3.7-6.1-10.6-6.2s-.7-.6-.3-.9c2.2-2,3.7-4.9,3.7-8.1s-2.5-8.1-6.2-9.8-.3-1,.2-1h36.6c1,0,1.7.8,1.7,1.7Z"/>
      <line class="cls-4" x1="-855" y1="220" x2="-864.9" y2="220"/>
      <line class="cls-4" x1="-864.6" y1="225.5" x2="-870" y2="225.5"/>
      <line class="cls-4" x1="-868.3" y1="231" x2="-874.1" y2="231"/>
      <line class="cls-4" x1="-855" y1="236.5" x2="-859.6" y2="236.5"/>
      <line class="cls-4" x1="-855" y1="225.5" x2="-862.3" y2="225.5"/>
      <line class="cls-4" x1="-855" y1="231" x2="-865.8" y2="231"/>
      <line class="cls-4" x1="-862.3" y1="236.5" x2="-876.7" y2="236.5"/>
      <path class="cls-14" d="M-871.5,253.4c-1.7,0-3.1-1.4-3.1-3.1s1.4-3.1,3.1-3.1,3.1,1.4,3.1,3.1-1.4,3.1-3.1,3.1ZM-871.5,248.2c-1.2,0-2.1,1-2.1,2.1s1,2.1,2.1,2.1,2.1-1,2.1-2.1-1-2.1-2.1-2.1Z"/>
      <rect class="cls-14" x="-872" y="242.9" width="1" height="4.8"/>
    </g>
  </g>
  <g>
    <g>
      <g>
        <g class="cls-19">
          <path class="cls-17" d="M-708.2,257.6h22.6v-8.7c0-3.6-2.7-6.6-5.9-6.6h-3.6l-2,3.8-2-3.8h-3.3c-3.3,0-5.9,2.9-5.9,6.6v8.7Z"/>
          <path class="cls-9" d="M-685,258.3h-23.8v-9.3c0-4,2.9-7.3,6.5-7.3h3.7l1.6,3.1,1.6-3.1h3.9c3.6,0,6.5,3.3,6.5,7.3v9.3ZM-707.8,257h21.7v-8.1c0-3.3-2.4-6-5.4-6h-3.3l-2.4,4.5-2.4-4.5h-3c-3,0-5.4,2.7-5.4,6v8.1Z"/>
        </g>
        <g class="cls-19">
          <circle class="cls-17" cx="-696.9" cy="232.9" r="6.8"/>
          <path class="cls-9" d="M-696.9,240.5c-4.2,0-7.6-3.4-7.6-7.6s3.4-7.6,7.6-7.6,7.6,3.4,7.6,7.6-3.4,7.6-7.6,7.6ZM-696.9,226.7c-3.4,0-6.2,2.8-6.2,6.2s2.8,6.2,6.2,6.2,6.2-2.8,6.2-6.2-2.8-6.2-6.2-6.2Z"/>
        </g>
      </g>
      <g>
        <path class="cls-14" d="M-687.7,230.4c0,.2,0,.4,0,.6h-1.2c0-.2,0-.4,0-.6,0-4.5-3.6-8.1-8.1-8.1s-8.1,3.6-8.1,8.1,0,.4,0,.6h-1.2c0-.2,0-.4,0-.6,0-5.1,4.1-9.3,9.3-9.3s9.3,4.1,9.3,9.3Z"/>
        <path class="cls-14" d="M-689.4,230.1h2.2c.7,0,1.2.6,1.2,1.2v3.9c0,.7-.6,1.2-1.2,1.2h-2.2v-6.3h0Z"/>
        <path class="cls-14" d="M-697.8,236.1h1.8c.7,0,1.2.6,1.2,1.2v2.4c0,.7-.6,1.2-1.2,1.2h-1.8v-4.8h0Z" transform="translate(-934.8 -457.7) rotate(-90)"/>
        <path class="cls-14" d="M-687.7,235v4c0,.5-.4,1-1,1h-5.3v-1.1h4.2c.5,0,1-.4,1-1v-2.9h1.1Z"/>
        <path class="cls-14" d="M-707.9,230.1h2.2c.7,0,1.2.6,1.2,1.2v3.9c0,.7-.6,1.2-1.2,1.2h-2.2v-6.3h0Z" transform="translate(-1412.5 466.6) rotate(180)"/>
      </g>
    </g>
    <path class="cls-14" d="M-687.2,224.8c-.1,0-.3,0-.4,0-.2-.1-.4-.4-.4-.7v-.6c-.9,0-1.6-.7-1.6-1.6v-4.7c0-.9.7-1.6,1.6-1.6h7c.9,0,1.6.7,1.6,1.6v4.7c0,.9-.7,1.6-1.6,1.6h-3.9l-1.9,1.2c-.1,0-.3.1-.4.1Z"/>
    <path class="cls-17" d="M-681.8,218.7h-5.3c-.3,0-.5-.2-.5-.5s.2-.5.5-.5h5.3c.3,0,.5.2.5.5s-.2.5-.5.5Z"/>
    <path class="cls-17" d="M-683.9,220.8h-3.2c-.3,0-.5-.2-.5-.5s.2-.5.5-.5h3.2c.3,0,.5.2.5.5s-.2.5-.5.5Z"/>
  </g>
  <g>
    <g>
      <g>
        <polygon class="cls-17" points="-627.7 238.1 -633.7 263.2 -617.2 261.1 -614.4 238.8 -616.6 236.8 -627.7 238.1"/>
        <path class="cls-9" d="M-634.6,264.1l6.3-26.6,11.9-1.4,2.7,2.5-2.9,23.3-18.1,2.2ZM-627.1,238.8l-5.6,23.5,14.8-1.8,2.7-21.3-1.7-1.5-10.2,1.2Z"/>
      </g>
      <g>
        <polygon class="cls-17" points="-615 261.2 -596.3 264.9 -595.3 239.6 -597.5 239.6 -605.3 247.3 -612.7 240.4 -615 261.2"/>
        <path class="cls-9" d="M-595.6,265.8l-20.2-4,2.6-22.9,7.9,7.4,7.5-7.4h3.3l-1.1,27ZM-614.2,260.6l17.1,3.4,1-23.7h-1.1l-8.1,8-6.8-6.3-2.1,18.6Z"/>
      </g>
      <g>
        <polygon class="cls-17" points="-593.3 239.6 -583.4 237.4 -577.5 260.8 -594.2 264.9 -593.3 239.6"/>
        <path class="cls-9" d="M-594.9,265.9l.9-26.9,11.2-2.5,6.2,24.9-18.3,4.5ZM-592.5,240.2l-.8,23.7,14.9-3.7-5.5-22-8.6,1.9Z"/>
      </g>
    </g>
    <path class="cls-14" d="M-605.4,211.9c-7.1,0-12.8,5.7-12.8,12.8s1,5.7,2.7,7.9c0,0,0,.1.2.3,1,1.3,5,6.4,9.9,10.8,4.9-4.4,8.9-9.5,9.9-10.8.2-.2.2-.3.2-.3,1.7-2.2,2.7-4.9,2.7-7.9,0-7.1-5.8-12.8-12.8-12.8ZM-605.4,219.4c2.9,0,5.2,2.3,5.2,5.2s-2.3,5.3-5.2,5.3-5.3-2.4-5.3-5.3,2.3-5.2,5.3-5.2Z"/>
  </g>
  <g>
    <path class="cls-13" d="M-984.1,224.5c-3,2.4-5.4,5.6-6.9,9.2-.2.4,0,.8.4,1,.1,0,.2,0,.3,0,.3,0,.6-.2.7-.5,1.4-3.3,3.5-6.2,6.3-8.5l-.3,1.8c0,.4.2.8.6.9.4,0,.8-.2.9-.6l.6-3.6c0-.2,0-.4-.1-.6s-.3-.3-.5-.3l-3.6-.6c-.4,0-.8.2-.9.6,0,.4.2.8.6.9l1.8.3ZM-961.6,262.1c-3.3,1.4-6.9,1.9-10.5,1.5l1.4-1c.3-.3.4-.7.2-1.1-.3-.3-.7-.4-1.1-.2l-3,2.2c-.2.1-.3.3-.3.5,0,.2,0,.4.1.6l2.2,3c.2.2.4.3.6.3s.3,0,.5-.1c.3-.3.4-.7.2-1.1l-1.1-1.5c3.9.4,7.8-.1,11.4-1.6.4-.2.6-.6.4-1-.2-.4-.6-.6-1-.4h0ZM-958.2,224.5c3,2,5.5,4.7,7.2,7.8l-1.7-.6c-.4-.1-.8,0-1,.5s0,.8.5,1l3.4,1.2c0,0,.2,0,.3,0,.3,0,.6-.2.7-.5l1.2-3.4c.1-.4,0-.8-.5-1-.4-.1-.8,0-1,.5l-.6,1.7c-1.8-3.4-4.5-6.3-7.7-8.5-.4-.2-.8-.1-1.1.2s-.1.8.2,1.1h0Z"/>
    <g>
      <circle class="cls-14" cx="-949.7" cy="243.1" r="4.2"/>
      <path class="cls-10" d="M-958.1,259.3h16.8v-5.8c0-2.4-2-4.4-4.4-4.4h-2.6l-1.5,2.5-1.5-2.5h-2.5c-2.4,0-4.4,2-4.4,4.4v5.8Z"/>
    </g>
    <g>
      <circle class="cls-14" cx="-990.7" cy="243.1" r="4.2"/>
      <path class="cls-10" d="M-999,259.3h16.8v-5.8c0-2.4-2-4.4-4.4-4.4h-2.6l-1.5,2.5-1.5-2.5h-2.5c-2.4,0-4.4,2-4.4,4.4v5.8Z"/>
    </g>
    <g>
      <circle class="cls-14" cx="-969.9" cy="212.1" r="4.2"/>
      <path class="cls-10" d="M-978.2,228.3h16.8v-5.8c0-2.4-2-4.4-4.4-4.4h-2.6l-1.5,2.5-1.5-2.5h-2.5c-2.4,0-4.4,2-4.4,4.4v5.8Z"/>
    </g>
  </g>
  <g>
    <g>
      <g>
        <path class="cls-17" d="M-984.3,348.7l-2.9,1.5c-.7.4-1.5,0-1.9-.6l-10.6-21.2c-.3-.7,0-1.5.6-1.9l2.8-1.5c1.5-.8,3.3-.2,4,1.3l9.2,18.3c.7,1.5.2,3.2-1.3,4Z"/>
        <path class="cls-9" d="M-987.8,351.1c-.2,0-.4,0-.7-.1-.6-.2-1-.6-1.3-1.1l-10.6-21.2c-.5-1-.1-2.3.9-2.9l2.8-1.5c.9-.5,1.9-.5,2.9-.2,1,.3,1.7,1,2.2,1.9l9.2,18.3c.9,1.8.2,4.1-1.6,5l-2.9,1.5c-.3.2-.6.2-1,.2ZM-994.8,325.5c-.4,0-.7,0-1,.2l-2.8,1.5c-.3.2-.4.5-.3.8l10.6,21.2c0,.2.2.3.4.3.2,0,.3,0,.5,0l2.9-1.5c1.1-.6,1.5-1.9,1-3l-9.2-18.3c-.3-.5-.7-.9-1.3-1.1-.2,0-.5-.1-.7-.1Z"/>
      </g>
      <g>
        <path class="cls-17" d="M-989.5,323.9l9.9,19.7h19.7c3.5,0,6.8-1.7,8.7-4.6l9.9-14.3c1.1-1.6.7-3.8-1-4.8h0c-1.5-.9-3.4-.6-4.5.7l-8.6,10.6c-.8,1-2.1,1.6-3.4,1.6h-8c-.9,0-1.6-.7-1.6-1.6h0c0-.9.7-1.6,1.6-1.6h7c2,0,3.6-1.6,3.6-3.6h0c0-2-1.6-3.6-3.6-3.6h-8.6c-.9,0-1.7-.3-2.4-.9-2.5-2.1-9.9-6.7-18.8,2.3Z"/>
        <path class="cls-9" d="M-959.9,344.3h-20.2l-10.4-20.6.4-.4c9.5-9.6,17.6-4.2,19.8-2.3.5.4,1.2.7,1.9.7h8.6c2.4,0,4.4,2,4.4,4.4s-2,4.4-4.4,4.4h-7c-.5,0-.8.4-.8.8s.4.8.8.8h8c1.1,0,2.1-.5,2.8-1.3l8.6-10.6c1.3-1.7,3.7-2,5.5-.9,1,.6,1.6,1.6,1.8,2.7.2,1.1,0,2.3-.7,3.2l-9.9,14.3c-2.1,3.1-5.6,4.9-9.4,4.9ZM-979.1,342.8h19.3c3.2,0,6.3-1.6,8.1-4.2l9.9-14.3c.4-.6.6-1.3.4-2-.1-.7-.6-1.3-1.2-1.7-1.1-.7-2.6-.5-3.5.6l-8.6,10.6c-1,1.2-2.4,1.9-4,1.9h-8c-1.3,0-2.3-1.1-2.3-2.3s1.1-2.3,2.3-2.3h7c1.6,0,2.8-1.3,2.8-2.8s-1.3-2.8-2.8-2.8h-8.6c-1.1,0-2.1-.4-2.9-1-2.5-2.1-9.2-6.1-17.4,1.8l9.4,18.8Z"/>
      </g>
    </g>
    <path class="cls-5" d="M-955.4,320.4"/>
    <path class="cls-14" d="M-953,299.8h-6.8v-6.8c0-.8-.7-1.5-1.5-1.5h-5.2c-.8,0-1.5.7-1.5,1.5v6.8h-6.8c-.8,0-1.5.7-1.5,1.5v5.2c0,.8.7,1.5,1.5,1.5h6.8v6.8c0,.8.7,1.5,1.5,1.5h5.2c.8,0,1.5-.7,1.5-1.5v-6.8h6.8c.8,0,1.5-.7,1.5-1.5v-5.2c0-.8-.7-1.5-1.5-1.5Z"/>
  </g>
  <path class="cls-5" d="M-866.5,320.4"/>
  <g>
    <g>
      <g>
        <path class="cls-17" d="M-895.3,348.7l-2.9,1.5c-.7.4-1.5,0-1.9-.6l-10.6-21.2c-.3-.7,0-1.5.6-1.9l2.8-1.5c1.5-.8,3.3-.2,4,1.3l9.2,18.3c.7,1.5.2,3.2-1.3,4Z"/>
        <path class="cls-9" d="M-898.8,351.1c-.2,0-.4,0-.7-.1-.6-.2-1-.6-1.3-1.1l-10.6-21.2c-.5-1-.1-2.3.9-2.9l2.8-1.5c.9-.5,1.9-.5,2.9-.2,1,.3,1.7,1,2.2,1.9l9.2,18.3c.9,1.8.2,4.1-1.6,5l-2.9,1.5c-.3.2-.6.2-1,.2ZM-905.9,325.5c-.4,0-.7,0-1,.2l-2.8,1.5c-.3.2-.4.5-.3.8l10.6,21.2c0,.2.2.3.4.3.2,0,.3,0,.5,0l2.9-1.5c1.1-.6,1.5-1.9,1-3l-9.2-18.3c-.3-.5-.7-.9-1.3-1.1-.2,0-.5-.1-.7-.1Z"/>
      </g>
      <g>
        <path class="cls-17" d="M-900.6,323.9l9.9,19.7h19.7c3.5,0,6.8-1.7,8.7-4.6l9.9-14.3c1.1-1.6.7-3.8-1-4.8h0c-1.5-.9-3.4-.6-4.5.7l-8.6,10.6c-.8,1-2.1,1.6-3.4,1.6h-8c-.9,0-1.6-.7-1.6-1.6h0c0-.9.7-1.6,1.6-1.6h7c2,0,3.6-1.6,3.6-3.6h0c0-2-1.6-3.6-3.6-3.6h-8.6c-.9,0-1.7-.3-2.4-.9-2.5-2.1-9.9-6.7-18.8,2.3Z"/>
        <path class="cls-9" d="M-871,344.3h-20.2l-10.4-20.6.4-.4c9.5-9.6,17.6-4.2,19.8-2.3.5.4,1.2.7,1.9.7h8.6c2.4,0,4.4,2,4.4,4.4s-2,4.4-4.4,4.4h-7c-.5,0-.8.4-.8.8s.4.8.8.8h8c1.1,0,2.1-.5,2.8-1.3l8.6-10.6c1.3-1.7,3.7-2,5.5-.9,1,.6,1.6,1.6,1.8,2.7.2,1.1,0,2.3-.7,3.2l-9.9,14.3c-2.1,3.1-5.6,4.9-9.4,4.9ZM-890.2,342.8h19.3c3.2,0,6.3-1.6,8.1-4.2l9.9-14.3c.4-.6.6-1.3.4-2-.1-.7-.6-1.3-1.2-1.7-1.1-.7-2.6-.5-3.5.6l-8.6,10.6c-1,1.2-2.4,1.9-4,1.9h-8c-1.3,0-2.3-1.1-2.3-2.3s1.1-2.3,2.3-2.3h7c1.6,0,2.8-1.3,2.8-2.8s-1.3-2.8-2.8-2.8h-8.6c-1.1,0-2.1-.4-2.9-1-2.5-2.1-9.2-6.1-17.4,1.8l9.4,18.8Z"/>
      </g>
    </g>
    <g>
      <path class="cls-14" d="M-875.1,317.8c-5.6,0-10.2-4.6-10.2-10.2s4.6-10.2,10.2-10.2,10.2,4.6,10.2,10.2-4.6,10.2-10.2,10.2Z"/>
      <path class="cls-14" d="M-869,295.5v2.8c-6.7-4.2-12.2,0-12.2,0v-2.8s5.4-4.3,12.2,0Z"/>
      <g>
        <path class="cls-14" d="M-865.3,293.3l-9.9-2.7v2.2c2,0,4.3.5,6.8,2.1v.6l3.1-1c.6-.2.6-1.1,0-1.2Z"/>
        <path class="cls-14" d="M-885.1,294.6l3.1,1v-.6c2.5-1.6,4.8-2.1,6.8-2.1v-2.2l-9.9,2.7c-.6.2-.6,1,0,1.2Z"/>
      </g>
      <path class="cls-14" d="M-884.5,296.9c-.2,0-.4-.2-.4-.4v-2.5c0-.2.2-.4.4-.4s.4.2.4.4v2.5c0,.2-.2.4-.4.4Z"/>
      <path class="cls-14" d="M-884.5,300.2c-.2,0-.4-.2-.4-.4v-2c0-.2.2-.4.4-.4s.4.2.4.4v2c0,.2-.2.4-.4.4Z"/>
      <path class="cls-14" d="M-883,298.2h-3c-.2,0-.4-.2-.4-.4s.2-.4.4-.4h3c.2,0,.4.2.4.4s-.2.4-.4.4Z"/>
      <path class="cls-17" d="M-875.2,312.8c-.5,0-.9,0-1.3-.2-.4-.1-.8-.3-1.2-.5-.4-.2-.7-.5-1-.8l1-1.2c.3.4.7.7,1.1.9.4.2.9.3,1.4.3s1.2-.1,1.5-.4c.3-.3.5-.7.5-1.2h0c0-.4,0-.7-.3-.9s-.4-.3-.7-.4c-.3,0-.6-.2-1-.2-.4,0-.7-.1-1.1-.2-.4,0-.7-.2-1-.4-.3-.2-.6-.5-.7-.8-.2-.4-.3-.8-.3-1.4h0c0-1,.3-1.8.9-2.3.6-.5,1.4-.8,2.6-.8s1,0,1.5.2c.5.2,1,.4,1.4.7l-.9,1.2c-.3-.2-.7-.4-1-.5-.3-.1-.7-.2-1-.2-.6,0-1.1.1-1.4.4-.3.3-.5.7-.5,1.2h0c0,.4.1.7.3.9.2.2.5.4.8.5.3,0,.7.2,1.1.3.3,0,.7.2,1,.3s.6.3.9.5c.3.2.5.5.7.8s.3.8.3,1.4h0c0,1-.3,1.8-.9,2.3-.6.5-1.5.8-2.7.8ZM-875.8,302.7v-1.6h1.5v1.6h-1.5ZM-875.8,314v-1.7h1.5v1.7h-1.5Z"/>
    </g>
  </g>
  <g>
    <g>
      <path class="cls-5" d="M-774.9,325.3"/>
      <circle class="cls-14" cx="-774" cy="306.9" r="15"/>
      <path class="cls-17" d="M-769.4,313.4c-.3,0-.5,0-.8-.3l-5.1-3.8c-.3-.2-.5-.6-.5-1v-8.5c0-.7.6-1.3,1.3-1.3s1.3.6,1.3,1.3v7.8l4.5,3.4c.6.4.7,1.2.3,1.8-.3.3-.6.5-1,.5Z"/>
    </g>
    <g>
      <path class="cls-7" d="M-786.1,332.6l-.2-.6,1.3-.8c.6-.3.7-1,.4-1.6-.3-.6-1-.8-1.6-.4l-.9.5-1.7-5.2c-.6-1.9-2.4-3.2-4.4-3.2h-13.1c-2,0-3.8,1.3-4.4,3.2l-1.7,5.2-.9-.5c-.6-.3-1.3-.1-1.6.4-.3.6-.1,1.3.4,1.6l1.3.8-.2.6c-1.8,1-3,2.9-3,5.1v7c0,2.6,2.1,4.7,4.7,4.7s4.3-1.8,4.6-4.1h14.7c.3,2.3,2.2,4.1,4.6,4.1s4.7-2.1,4.7-4.7v-7c0-2.2-1.2-4.1-3-5.1ZM-806.5,340.1h-2.3c-.6,0-1.2-.5-1.2-1.2s.5-1.2,1.2-1.2h2.3c.6,0,1.2.5,1.2,1.2s-.5,1.2-1.2,1.2ZM-790.7,340.1h-2.3c-.6,0-1.2-.5-1.2-1.2s.5-1.2,1.2-1.2h2.3c.6,0,1.2.5,1.2,1.2s-.5,1.2-1.2,1.2ZM-799.7,331.9h-10.9l2.2-6.6c.3-.9,1.2-1.6,2.2-1.6h13.1c1,0,1.9.6,2.2,1.6l2.2,6.6h-10.9Z"/>
      <path class="cls-12" d="M-787.8,349.9c-2.5,0-4.6-1.7-5.1-4.1h-13.8c-.5,2.4-2.6,4.1-5.1,4.1s-5.2-2.3-5.2-5.2v-7c0-2.2,1.2-4.3,3-5.4l-.9-.5c-.4-.2-.7-.6-.8-1-.1-.4,0-.9.2-1.3.5-.8,1.5-1.1,2.3-.6l.3.2,1.5-4.6c.7-2.1,2.7-3.5,4.9-3.5h13.1c2.2,0,4.2,1.4,4.9,3.5l1.5,4.6.3-.2c.8-.5,1.9-.2,2.3.6.2.4.3.8.2,1.3-.1.4-.4.8-.8,1l-.9.5c1.9,1.2,3,3.2,3,5.4v7c0,2.9-2.3,5.2-5.2,5.2ZM-807.5,344.8h15.6v.5c.3,2.1,2.1,3.6,4.2,3.6s4.1-1.9,4.1-4.1v-7c0-1.9-1-3.7-2.7-4.6h-.2c0-.1-.4-1.3-.4-1.3l1.7-1c.1,0,.2-.2.3-.4,0-.2,0-.3,0-.5,0-.2-.2-.3-.4-.3-.2,0-.3,0-.5,0l-1.5.8-1.9-5.8c-.6-1.7-2.1-2.8-3.9-2.8h-13.1c-1.8,0-3.4,1.1-3.9,2.8l-1.9,5.8-1.5-.8c-.1,0-.3-.1-.5,0-.2,0-.3.1-.4.3,0,.2-.1.3,0,.5,0,.2.1.3.3.4l1.7,1-.4,1.2h-.2c-1.7,1-2.7,2.8-2.7,4.7v7c0,2.3,1.9,4.1,4.1,4.1s3.8-1.6,4.1-3.6v-.5ZM-790.7,340.6h-2.3c-.9,0-1.7-.8-1.7-1.7s.8-1.7,1.7-1.7h2.3c.9,0,1.7.8,1.7,1.7s-.8,1.7-1.7,1.7ZM-793,338.3c-.3,0-.6.3-.6.6s.3.6.6.6h2.3c.3,0,.6-.3.6-.6s-.3-.6-.6-.6h-2.3ZM-806.5,340.6h-2.3c-.9,0-1.7-.8-1.7-1.7s.8-1.7,1.7-1.7h2.3c.9,0,1.7.8,1.7,1.7s-.8,1.7-1.7,1.7ZM-808.8,338.3c-.3,0-.6.3-.6.6s.3.6.6.6h2.3c.3,0,.6-.3.6-.6s-.3-.6-.6-.6h-2.3ZM-788.1,332.4h-23.3l2.4-7.3c.4-1.2,1.5-2,2.7-2h13.1c1.2,0,2.3.8,2.7,2l2.4,7.3ZM-809.8,331.3h20.2l-1.9-5.8c-.2-.7-.9-1.2-1.7-1.2h-12.9c-.8,0-1.4.5-1.7,1.2l-1.9,5.8Z"/>
    </g>
    <path class="cls-9" d="M-816.7,324.7c-.3,0-.5-.2-.5-.5v-21.7c0-5.8,4.7-10.6,10.6-10.6h19.5c.3,0,.5.2.5.5s-.2.5-.5.5h-19.5c-5.3,0-9.5,4.3-9.5,9.5v21.7c0,.3-.2.5-.5.5Z"/>
    <path class="cls-9" d="M-768.7,348.5h-10.6c-.3,0-.5-.2-.5-.5s.2-.5.5-.5h10.6c4.9,0,8.9-4,8.9-8.9v-18.8c0-.3.2-.5.5-.5s.5.2.5.5v18.8c0,5.5-4.4,9.9-9.9,9.9Z"/>
  </g>
  <g>
    <g>
      <g>
        <polygon class="cls-17" points="-717.4 321.1 -723.4 346.2 -706.9 344.1 -704.2 321.8 -706.4 319.8 -717.4 321.1"/>
        <path class="cls-9" d="M-724.4,347.1l6.3-26.6,11.9-1.4,2.7,2.5-2.9,23.3-18.1,2.2ZM-716.8,321.8l-5.6,23.5,14.8-1.8,2.7-21.3-1.7-1.5-10.2,1.2Z"/>
      </g>
      <g>
        <polygon class="cls-17" points="-704.8 344.2 -686.1 347.9 -685.1 322.6 -687.3 322.6 -695.1 330.3 -702.4 323.4 -704.8 344.2"/>
        <path class="cls-9" d="M-685.4,348.8l-20.2-4,2.6-22.9,7.9,7.4,7.5-7.4h3.3l-1.1,27ZM-704,343.6l17.1,3.4,1-23.7h-1.1l-8.1,8-6.8-6.3-2.1,18.6Z"/>
      </g>
      <g>
        <polygon class="cls-17" points="-683 322.6 -673.1 320.4 -667.3 343.8 -683.9 347.9 -683 322.6"/>
        <path class="cls-9" d="M-684.7,348.9l.9-26.9,11.2-2.5,6.2,24.9-18.3,4.5ZM-682.3,323.2l-.8,23.7,14.9-3.7-5.5-22-8.6,1.9Z"/>
      </g>
    </g>
    <path class="cls-14" d="M-695.1,294.9c-7.1,0-12.8,5.7-12.8,12.8s1,5.7,2.7,7.9c0,0,0,.1.2.3,1,1.3,5,6.4,9.9,10.8,4.9-4.4,8.9-9.5,9.9-10.8.2-.2.2-.3.2-.3,1.7-2.2,2.7-4.9,2.7-7.9,0-7.1-5.8-12.8-12.8-12.8ZM-695.1,302.4c2.9,0,5.2,2.3,5.2,5.2s-2.3,5.3-5.2,5.3-5.3-2.4-5.3-5.3,2.3-5.2,5.3-5.2Z"/>
  </g>
  <path class="cls-17" d="M-1052.1,342.1c0-.8,0-1.7-1-1.7-.6,0-1,.5-1,1v.7c-11.1-.5-19.9-9.4-20.5-20.5.8,0,1.7,0,1.7-1,0-.6-.5-1-1-1h-.7c.5-11.1,9.4-19.9,20.5-20.5v.7c0,.6.5,1,1,1,.6,0,1-.5,1-1v-.7c11.1.5,19.9,9.4,20.5,20.5h-.7c-.6,0-1,.5-1,1,0,.6.5,1,1,1h.7c-.5,11.1-9.4,19.9-20.5,20.5h0Z"/>
  <g>
    <path class="cls-12" d="M-1024,319.5h-5.6c-.5-12.2-10.3-22-22.6-22.6v-5.6c0-.6-.5-1-1-1-.6,0-1,.5-1,1,0,0,0,0,0,0v5.6c-12.2.5-22,10.3-22.6,22.6h-5.6c-.6,0-1,.5-1,1,0,.6.5,1,1,1h5.6c.5,12.2,10.3,22,22.6,22.6v5.6c0,.6.5,1,1,1,.6,0,1-.5,1-1,0,0,0,0,0,0v-5.6c12.2-.5,22-10.3,22.6-22.6h5.6c.6,0,1-.5,1-1,0-.6-.5-1-1-1ZM-1052.1,342.1c0-.8,0-1.7-1-1.7-.6,0-1,.5-1,1v.7c-11.1-.5-19.9-9.4-20.5-20.5.8,0,1.7,0,1.7-1,0-.6-.5-1-1-1h-.7c.5-11.1,9.4-19.9,20.5-20.5v.7c0,.6.5,1,1,1,.6,0,1-.5,1-1v-.7c11.1.5,19.9,9.4,20.5,20.5h-.7c-.6,0-1,.5-1,1,0,.6.5,1,1,1h.7c-.5,11.1-9.4,19.9-20.5,20.5h0Z"/>
    <g>
      <circle class="cls-14" cx="-1053.2" cy="313.9" r="4.6"/>
      <path class="cls-14" d="M-1062.5,331.8h18.6v-6.4c0-2.7-2.2-4.9-4.9-4.9h-2.9l-1.6,2.8-1.6-2.8h-2.7c-2.7,0-4.9,2.2-4.9,4.9v6.4Z"/>
    </g>
  </g>
  <g>
    <rect class="cls-17" x="-627.5" y="308" width="43.6" height="11.8"/>
    <rect class="cls-17" x="-624.2" y="319.8" width="36.4" height="26.8"/>
    <polygon class="cls-9" points="-612.4 320.4 -627.9 320.4 -627.9 307.8 -611.3 307.8 -611.3 308.9 -626.8 308.9 -626.8 319.2 -612.4 319.2 -612.4 320.4"/>
    <polygon class="cls-9" points="-583.3 320.4 -598.8 320.4 -598.8 319.2 -584.4 319.2 -584.4 308.9 -599.8 308.9 -599.8 307.8 -583.3 307.8 -583.3 320.4"/>
    <polygon class="cls-9" points="-612.4 346.6 -624.1 346.6 -624.1 319.8 -623 319.8 -623 345.5 -612.4 345.5 -612.4 346.6"/>
    <polygon class="cls-9" points="-587.1 346.6 -598.8 346.6 -598.8 345.5 -588.2 345.5 -588.2 319.8 -587.1 319.8 -587.1 346.6"/>
    <rect class="cls-14" x="-610.1" y="309.1" width="8.9" height="37.5"/>
    <rect class="cls-14" x="-610.1" y="299.1" width="8.9" height="8.9" rx="-296.2" ry="-296.2"/>
    <path class="cls-14" d="M-599.8,304.3v-3.7s5.2-7.9,10-5.1c0,0,7.1,8.1,1.4,10h-11.4l11-4.1s-5.6-.8-11,2.9Z"/>
    <path class="cls-14" d="M-611.3,304.3v-3.7s-5.2-7.9-10-5.1c0,0-7.1,8.1-1.4,10h11.4s-11-4.1-11-4.1c0,0,5.6-.8,11,2.9Z"/>
    <polygon class="cls-14" points="-592.4 307.7 -599.8 307.7 -599.8 309.1 -594.3 318.5 -593.8 312.1 -588.5 313.2 -592.4 307.7"/>
    <polygon class="cls-14" points="-618.8 307.7 -611.3 307.7 -611.3 309.1 -616.9 318.5 -617.4 312.1 -622.7 313.2 -618.8 307.7"/>
  </g>
  <g>
    <g>
      <path class="cls-9" d="M-1037.7,396.1c-.4,0-.8-.4-.8-.8v-12.4h-10c-.4,0-.8-.4-.8-.8s.4-.8.8-.8h10.8c.4,0,.8.4.8.8v13.2c0,.4-.4.8-.8.8Z"/>
      <path class="cls-9" d="M-1043.5,388.4c-.2,0-.4,0-.6-.2l-5.7-5.6c-.3-.3-.3-.8,0-1.1l5.7-6c.3-.3.8-.3,1.1,0,.3.3.3.8,0,1.1l-5.1,5.4,5.1,5c.3.3.3.8,0,1.1-.2.2-.4.2-.6.2Z"/>
    </g>
    <g>
      <path class="cls-9" d="M-1059.3,426.8h-10.8c-.4,0-.8-.4-.8-.8v-13.2c0-.4.4-.8.8-.8s.8.4.8.8v12.4h10c.4,0,.8.4.8.8s-.4.8-.8.8Z"/>
      <path class="cls-9" d="M-1064.3,432.8c-.2,0-.4,0-.5-.2-.3-.3-.3-.8,0-1.1l5.1-5.4-5.1-5c-.3-.3-.3-.8,0-1.1.3-.3.8-.3,1.1,0l5.7,5.6c.3.3.3.8,0,1.1l-5.7,6c-.2.2-.4.2-.6.2Z"/>
    </g>
    <g>
      <circle class="cls-14" cx="-1039.6" cy="407.9" r="6.5"/>
      <path class="cls-10" d="M-1052.7,433.3h26.3v-9.1c0-3.8-3.1-6.9-6.9-6.9h-4.1l-2.3,4-2.3-4h-3.8c-3.8,0-6.9,3.1-6.9,6.9v9.1Z"/>
    </g>
    <g>
      <circle class="cls-14" cx="-1066.9" cy="380.6" r="6.5"/>
      <path class="cls-10" d="M-1079.9,406h26.3v-9.1c0-3.8-3.1-6.9-6.9-6.9h-4.1l-2.3,4-2.3-4h-3.8c-3.8,0-6.9,3.1-6.9,6.9v9.1Z"/>
    </g>
  </g>
  <g>
    <g>
      <g>
        <path class="cls-17" d="M-984.3,431.5l-2.9,1.5c-.7.4-1.5,0-1.9-.6l-10.6-21.2c-.3-.7,0-1.5.6-1.9l2.8-1.5c1.5-.8,3.3-.2,4,1.3l9.2,18.3c.7,1.5.2,3.2-1.3,4Z"/>
        <path class="cls-9" d="M-987.8,433.9c-.2,0-.4,0-.7-.1-.6-.2-1-.6-1.3-1.1l-10.6-21.2c-.5-1-.1-2.3.9-2.9l2.8-1.5c.9-.5,1.9-.5,2.9-.2,1,.3,1.7,1,2.2,1.9l9.2,18.3c.9,1.8.2,4.1-1.6,5l-2.9,1.5c-.3.2-.6.2-1,.2ZM-994.8,408.3c-.4,0-.7,0-1,.2l-2.8,1.5c-.3.2-.4.5-.3.8l10.6,21.2c0,.2.2.3.4.3.2,0,.3,0,.5,0l2.9-1.5c1.1-.6,1.5-1.9,1-3l-9.2-18.3c-.3-.5-.7-.9-1.3-1.1-.2,0-.5-.1-.7-.1Z"/>
      </g>
      <g>
        <path class="cls-17" d="M-989.5,406.7l9.9,19.7h19.7c3.5,0,6.8-1.7,8.7-4.6l9.9-14.3c1.1-1.6.7-3.8-1-4.8h0c-1.5-.9-3.4-.6-4.5.7l-8.6,10.6c-.8,1-2.1,1.6-3.4,1.6h-8c-.9,0-1.6-.7-1.6-1.6h0c0-.9.7-1.6,1.6-1.6h7c2,0,3.6-1.6,3.6-3.6h0c0-2-1.6-3.6-3.6-3.6h-8.6c-.9,0-1.7-.3-2.4-.9-2.5-2.1-9.9-6.7-18.8,2.3Z"/>
        <path class="cls-9" d="M-959.9,427.1h-20.2l-10.4-20.6.4-.4c9.5-9.6,17.6-4.2,19.8-2.3.5.4,1.2.7,1.9.7h8.6c2.4,0,4.4,2,4.4,4.4s-2,4.4-4.4,4.4h-7c-.5,0-.8.4-.8.8s.4.8.8.8h8c1.1,0,2.1-.5,2.8-1.3l8.6-10.6c1.3-1.7,3.7-2,5.5-.9,1,.6,1.6,1.6,1.8,2.7.2,1.1,0,2.3-.7,3.2l-9.9,14.3c-2.1,3.1-5.6,4.9-9.4,4.9ZM-979.1,425.6h19.3c3.2,0,6.3-1.6,8.1-4.2l9.9-14.3c.4-.6.6-1.3.4-2-.1-.7-.6-1.3-1.2-1.7-1.1-.7-2.6-.5-3.5.6l-8.6,10.6c-1,1.2-2.4,1.9-4,1.9h-8c-1.3,0-2.3-1.1-2.3-2.3s1.1-2.3,2.3-2.3h7c1.6,0,2.8-1.3,2.8-2.8s-1.3-2.8-2.8-2.8h-8.6c-1.1,0-2.1-.4-2.9-1-2.5-2.1-9.2-6.1-17.4,1.8l9.4,18.8Z"/>
      </g>
    </g>
    <path class="cls-5" d="M-955.4,403.2"/>
    <g>
      <path class="cls-14" d="M-964.9,399.5c-12-5.8-11.5-20.3-11.5-20.3,6-.8,10.9-5,10.9-5h1s4.9,4.2,10.9,5c0,0,.7,14.5-11.3,20.3"/>
      <path class="cls-17" d="M-965.8,390.4c-.3,0-.6-.1-.8-.3l-3.4-3.3c-.4-.4-.5-1.1,0-1.6.4-.4,1.1-.5,1.6,0l2.7,2.6,6-5.3c.5-.4,1.2-.4,1.6,0,.4.5.4,1.2,0,1.6l-6.7,6c-.2.2-.5.3-.7.3Z"/>
    </g>
  </g>
  <g>
    <path class="cls-9" d="M-787.5,427.3c-.9,0-1.8-.4-2.5-1.1l-27-27.3c-.3-.3-.3-.8,0-1.1.3-.3.8-.3,1.1,0l27,27.3c.8.8,2,.8,2.8.1.4-.4.7-.9.7-1.5,0-.6-.2-1.1-.6-1.5l-5.6-5.9c-.3-.3-.3-.8,0-1.1.3-.3.8-.3,1.1,0l5.6,5.9c.7.7,1,1.6,1,2.6,0,1-.5,1.9-1.2,2.5-.7.6-1.5.9-2.4.9Z"/>
    <path class="cls-9" d="M-783.5,423.3c-.9,0-1.8-.4-2.5-1.1-.3-.3-.3-.8,0-1.1s.8-.3,1.1,0c.8.8,2,.8,2.8.1.4-.4.7-.9.7-1.5,0-.6-.2-1.1-.6-1.5l-5.6-5.9c-.3-.3-.3-.8,0-1.1.3-.3.8-.3,1.1,0l5.6,5.9c.7.7,1,1.6,1,2.6s-.5,1.9-1.2,2.5c-.7.6-1.5.9-2.4.9Z"/>
    <path class="cls-9" d="M-779.5,419.2c-.9,0-1.8-.4-2.5-1.1-.3-.3-.3-.8,0-1.1.3-.3.8-.3,1.1,0,.8.8,2,.8,2.8.1.4-.4.7-.9.7-1.5,0-.6-.2-1.1-.6-1.5l-5.6-5.9c-.3-.3-.3-.8,0-1.1.3-.3.8-.3,1.1,0l5.6,5.9c.7.7,1,1.6,1,2.6,0,1-.5,1.9-1.2,2.5-.7.6-1.5.9-2.4.9Z"/>
    <path class="cls-9" d="M-775.5,415.1c-.9,0-1.8-.4-2.5-1.1-.3-.3-.3-.8,0-1.1.3-.3.8-.3,1.1,0,.8.8,2,.8,2.8.1.4-.4.7-.9.7-1.5,0-.6-.2-1.1-.6-1.5l-5.6-5.9c-.3-.3-.3-.8,0-1.1.3-.3.8-.3,1.1,0l5.6,5.9c.7.7,1,1.6,1,2.6,0,1-.5,1.9-1.2,2.5-.7.6-1.5.9-2.4.9Z"/>
    <g>
      <rect class="cls-14" x="-812.7" y="407.7" width="10.4" height="5.6" rx="-395.9" ry="-395.9" transform="translate(-526.7 -450.7) rotate(-45)"/>
      <rect class="cls-14" x="-808.7" y="411.6" width="10.4" height="5.6" rx="-393.9" ry="-393.9" transform="translate(-528.4 -446.8) rotate(-45)"/>
      <rect class="cls-14" x="-804.8" y="415.5" width="10.4" height="5.6" rx="-392" ry="-392" transform="translate(-530 -442.9) rotate(-45)"/>
      <rect class="cls-14" x="-800.9" y="419.5" width="10.4" height="5.6" rx="-390" ry="-390" transform="translate(-531.6 -438.9) rotate(-45)"/>
    </g>
    <rect class="cls-14" x="-771.5" y="379.7" width="6.8" height="19.2" rx="-378.9" ry="-378.9" transform="translate(-500.2 -429.1) rotate(-45)"/>
    <path class="cls-14" d="M-768.5,398.3l-8.9-9.2c-.6-.7-1.4-1.1-2.3-1.4l-11-3.2c-2.8-.8-5.8.6-7,3.3l-4.5,10.4c-.7,1.7,0,3.7,1.6,4.5h0c1.7.8,3.8.1,4.6-1.6l2.5-5.3c.7-1.5,2.7-1.9,3.9-.8l13.6,13.2,7.4-7.1c.7-.8.7-2,0-2.7Z"/>
  </g>
  <g>
    <g>
      <rect class="cls-6" x="-792.9" y="241" width="21.8" height="14.3" rx="-374.6" ry="-374.6"/>
      <rect class="cls-6" x="-788.5" y="258.9" width="13.1" height="3.1" rx="-381.2" ry="-381.2"/>
      <rect class="cls-6" x="-783.7" y="255.4" width="3.4" height="3.4"/>
      <path class="cls-3" d="M-793.9,229h6.8c2.8,0,5,2.3,5,5v4.8"/>
    </g>
    <g>
      <rect class="cls-6" x="-825.4" y="241" width="21.8" height="14.3" rx="-390.9" ry="-390.9" transform="translate(-1628.9 496.3) rotate(-180)"/>
      <rect class="cls-6" x="-821.1" y="258.9" width="13.1" height="3.1" rx="-397.5" ry="-397.5" transform="translate(-1629 520.9) rotate(-180)"/>
      <rect class="cls-6" x="-816.2" y="255.4" width="3.4" height="3.4" transform="translate(-1628.9 514.3) rotate(-180)"/>
      <path class="cls-3" d="M-802.6,229h-6.8c-2.8,0-5,2.3-5,5v4.8"/>
    </g>
    <g>
      <path class="cls-1" d="M-810.2,219.2s11.2-12.2,24,0"/>
      <path class="cls-1" d="M-805.8,224.2s7.1-7.7,15.2,0"/>
      <circle class="cls-16" cx="-798.2" cy="228.7" r="2"/>
    </g>
  </g>
  <g>
    <g>
      <circle class="cls-14" cx="-522.7" cy="218.1" r="4.7"/>
      <path class="cls-10" d="M-532.1,236.4h19v-6.6c0-2.8-2.2-5-5-5h-3l-1.7,2.9-1.7-2.9h-2.8c-2.7,0-5,2.2-5,5v6.6Z"/>
    </g>
    <g>
      <g>
        <circle class="cls-14" cx="-500.5" cy="248.2" r="3.7"/>
        <path class="cls-10" d="M-507.9,262.4h14.8v-5.1c0-2.1-1.7-3.9-3.9-3.9h-2.3l-1.3,2.2-1.3-2.2h-2.2c-2.1,0-3.9,1.7-3.9,3.9v5.1Z"/>
      </g>
      <g>
        <circle class="cls-14" cx="-544.8" cy="248.2" r="3.7"/>
        <path class="cls-10" d="M-552.1,262.4h14.8v-5.1c0-2.1-1.7-3.9-3.9-3.9h-2.3l-1.3,2.2-1.3-2.2h-2.2c-2.1,0-3.9,1.7-3.9,3.9v5.1Z"/>
      </g>
    </g>
    <g>
      <path class="cls-9" d="M-545.3,241.8v-8.4c0-.3.3-.6.6-.6h10.3c.3,0,.6.3.6.6s-.3.6-.6.6h-9.6v7.8c0,.3-.3.6-.6.6s-.6-.3-.6-.6Z"/>
      <path class="cls-9" d="M-549.9,237.9c0-.2,0-.3.2-.4.2-.2.6-.3.9,0l4.2,4,3.9-4c.2-.2.6-.2.9,0,.2.2.2.6,0,.9l-4.3,4.4c-.2.2-.6.2-.9,0l-4.6-4.4c-.1-.1-.2-.3-.2-.4Z"/>
    </g>
    <g>
      <path class="cls-9" d="M-500.1,241.8v-8.4c0-.3-.3-.6-.6-.6h-10.3c-.3,0-.6.3-.6.6s.3.6.6.6h9.6v7.8c0,.3.3.6.6.6s.6-.3.6-.6Z"/>
      <path class="cls-9" d="M-495.4,237.9c0-.2,0-.3-.2-.4-.2-.2-.6-.3-.9,0l-4.2,4-3.9-4c-.2-.2-.6-.2-.9,0-.2.2-.2.6,0,.9l4.3,4.4c.2.2.6.2.9,0l4.6-4.4c.1-.1.2-.3.2-.4Z"/>
    </g>
  </g>
  <g>
    <g>
      <g>
        <path class="cls-17" d="M-719,430.9l-2.9,1.5c-.7.4-1.5,0-1.9-.6l-10.6-21.2c-.3-.7,0-1.5.6-1.9l2.8-1.5c1.5-.8,3.3-.2,4,1.3l9.2,18.3c.7,1.5.2,3.2-1.3,4Z"/>
        <path class="cls-12" d="M-722.5,433.3c-.2,0-.4,0-.7-.1-.6-.2-1-.6-1.3-1.1l-10.6-21.2c-.5-1-.1-2.3.9-2.9l2.8-1.5c.9-.5,1.9-.5,2.9-.2,1,.3,1.7,1,2.2,1.9l9.2,18.3c.9,1.8.2,4.1-1.6,5l-2.9,1.5c-.3.2-.6.2-1,.2ZM-729.6,407.7c-.4,0-.7,0-1,.2l-2.8,1.5c-.3.2-.4.5-.3.8l10.6,21.2c0,.2.2.3.4.3.2,0,.3,0,.5,0l2.9-1.5c1.1-.6,1.5-1.9,1-3l-9.2-18.3c-.3-.5-.7-.9-1.3-1.1-.2,0-.5-.1-.7-.1Z"/>
      </g>
      <g>
        <path class="cls-17" d="M-724.3,406.1l9.9,19.7h19.7c3.5,0,6.8-1.7,8.7-4.6l9.9-14.3c1.1-1.6.7-3.8-1-4.8h0c-1.5-.9-3.4-.6-4.5.7l-8.6,10.6c-.8,1-2.1,1.6-3.4,1.6h-8c-.9,0-1.6-.7-1.6-1.6h0c0-.9.7-1.6,1.6-1.6h7c2,0,3.6-1.6,3.6-3.6h0c0-2-1.6-3.6-3.6-3.6h-8.6c-.9,0-1.7-.3-2.4-.9-2.5-2.1-9.9-6.7-18.8,2.3Z"/>
        <path class="cls-12" d="M-694.7,426.5h-20.2l-10.4-20.6.4-.4c9.5-9.6,17.6-4.2,19.8-2.3.5.4,1.2.7,1.9.7h8.6c2.4,0,4.4,2,4.4,4.4s-2,4.4-4.4,4.4h-7c-.5,0-.8.4-.8.8s.4.8.8.8h8c1.1,0,2.1-.5,2.8-1.3l8.6-10.6c1.3-1.7,3.7-2,5.5-.9,1,.6,1.6,1.6,1.8,2.7.2,1.1,0,2.3-.7,3.2l-9.9,14.3c-2.1,3.1-5.6,4.9-9.4,4.9ZM-713.9,425h19.3c3.2,0,6.3-1.6,8.1-4.2l9.9-14.3c.4-.6.6-1.3.4-2-.1-.7-.6-1.3-1.2-1.7-1.1-.7-2.6-.5-3.5.6l-8.6,10.6c-1,1.2-2.4,1.9-4,1.9h-8c-1.3,0-2.3-1.1-2.3-2.3s1.1-2.3,2.3-2.3h7c1.6,0,2.8-1.3,2.8-2.8s-1.3-2.8-2.8-2.8h-8.6c-1.1,0-2.1-.4-2.9-1-2.5-2.1-9.2-6.1-17.4,1.8l9.4,18.8Z"/>
      </g>
    </g>
    <g>
      <path class="cls-15" d="M-716.7,398.5s4.8-1.6,9.6.8c0,0,1.6,1,3.4,1.7s2,.5,3,.5h7.1v-8.4c0-1.3-.5-2.5-1.4-3.4-1.5-1.5-4.3-3.4-8.3-2.4l-1.8,3.5-1.4-3.5s-5.8-1.5-9.3,2.8-1,1.8-1,2.8v5.4Z"/>
      <circle class="cls-11" cx="-705.2" cy="379.3" r="5.3"/>
    </g>
  </g>
  <g>
    <path class="cls-14" d="M-877.6,404l-7.6-28.5c-.1-.4-.5-.6-.9-.5s-.6.5-.5.9l.4,1.5-19.5,5.2c-.2,0-.4.3-.5.5s0,.5.1.7l4.2,5.3-1,6.6c0,.3,0,.5.2.7.1.1.3.2.5.2s.1,0,.2,0l19.5-5.2,3.7,13.9"/>
    <path class="cls-14" d="M-878.9,405.2l4.1,15.3,3.1,11.4c0,.3.4.6.7.6s.1,0,.2,0c.4-.1.6-.5.5-.9l-2.6-9.9-4.8-17.7"/>
    <g>
      <circle class="cls-18" cx="-904.7" cy="413.7" r="3.7"/>
      <path class="cls-18" d="M-891.3,404.5c2.1,0,3.7,1.7,3.7,3.7s-1.7,3.7-3.7,3.7-3.7-1.7-3.7-3.7,1.7-3.7,3.7-3.7h0Z"/>
      <circle class="cls-18" cx="-861.3" cy="412.1" r="3.7"/>
      <path class="cls-18" d="M-909.3,423c.3-1.7,1.6-3,3.4-3.3l7.5-1.3-2.3,12.6h-10l1.5-8Z"/>
      <path class="cls-18" d="M-882.6,416.8l-9.3,2.6c-.4.1-.6.5-.5.9s.5.6.9.5l4.6-1.3-2.3,11.5h-10.1l2.5-13.8c.3-1.8,1.6-3.1,3.3-3.3l7.5-.9c1.1-.1,2-.4,2.9-1.4l6-6.2c1.6,4-1.8,7.4-5.7,11.3h0Z"/>
      <path class="cls-18" d="M-860.2,431l-2.9-8.4h2.8s0,0,0,0c.4,0,.8-.3.8-.8,0-.4-.3-.8-.8-.8h-8.4c-2.8,0-5.3-1.5-6.9-3.8h15.5c2.9,0,5.4,1.9,6.2,4.8l2.3,8.9h-8.5Z"/>
    </g>
  </g>
  <g>
    <g>
      <path class="cls-11" d="M-592.6,401.2c0,1.1-1,2-2.2,2s-2.2-.9-2.2-2v-.2h4.5v.2Z"/>
      <path class="cls-11" d="M-590.2,398.9c0,.4-.4.7-.8.7h-7.6c-.4,0-.8-.3-.8-.7v-1.9h9.3v1.9h0Z"/>
      <path class="cls-11" d="M-587,391c-.9,1.1-1.8,2.2-1.8,4.1s-.2.5-.5.5h-10.8c-.3,0-.5-.2-.5-.5,0-1.9-.9-3.1-1.8-4.1-1.1-1.3-2.3-2.7-2.3-5.9,0-5.4,4.5-9.8,10-9.8s10,4.4,10,9.8c0,3.2-1.1,4.6-2.3,5.9h0Z"/>
      <path class="cls-17" d="M-586.7,385.1c0,.4-.3.7-.7.7s-.7-.3-.7-.7c0-3.6-3-6.5-6.7-6.5s-.7-.3-.7-.7.3-.7.7-.7c4.5,0,8.1,3.5,8.1,7.9Z"/>
    </g>
    <path class="cls-9" d="M-620.2,386.9v-2.6c0-.5.4-.9.9-.9s.9.4.9.9v2.6c0,.5-.4.9-.9.9s-.9-.4-.9-.9Z"/>
    <path class="cls-9" d="M-617.2,386.8l1.7-2.2c.3-.4.8-.4,1.2-.2s.4.8.2,1.2l-1.7,2.2c-.2.2-.4.3-.7.3s-.4,0-.5-.2c-.4-.3-.4-.8-.2-1.2h0Z"/>
    <path class="cls-9" d="M-598.5,413.2c1.4-2.4.5-4.3-1.1-5.2-.9-.5-1.9-.7-3-.5.2-1.5-.5-3-1.9-3.8-1-.6-2.1-.7-3.2-.4,0-.2,0-.4-.1-.7-.3-1-.9-1.9-1.8-2.4-.7-.4-1.5-.6-2.2-.5l3.6-6.1c.5-.9.7-1.9.4-3-.3-1-.9-1.9-1.8-2.4-1.9-1.1-4.3-.5-5.3,1.4-.6,1.1-1.4,2.3-2.2,3.6,0,0,0,0,0,0-1.6-1.7-3.7-2.6-6.1-2.6s-.6,0-.9,0c-1,.1-1.8.7-2.1,1.7-.3.9-.2,1.9.5,2.7,1.5,1.6,2.5,3.7,3,6.1,0,.5.2.9.2,1.4-2.1,4.6-3.2,9.5-.8,13.6,1,1.8,2.2,2.6,3.1,3.2,1.2.8,1.9,1.3,1.9,3.6v.5h-.1c-1.4,0-2.5,1.1-2.5,2.5v5.4c0,.5.4.9.9.9s.9-.4.9-.9v-5.4c0-.4.4-.8.8-.8h15.1c.4,0,.8.4.8.8v5.4c0,.5.4.9.9.9s.9-.4.9-.9v-5.4c0-1.4-1.1-2.5-2.5-2.5h-.1v-1.8l5-8.4ZM-624.5,393.8c-.2-.3-.3-.6-.2-.9.1-.3.4-.5.7-.6.2,0,.5,0,.7,0,2,0,3.8.9,5.1,2.4-1,1.6-2.1,3.4-3.1,5.1-.6-2.3-1.7-4.4-3.2-6.1ZM-605.1,420.9c0,.1-.1.3-.1.4v2h-11.4v-.5c0-3.2-1.3-4.1-2.7-5-.9-.6-1.8-1.2-2.6-2.6-3.5-6.1,2.1-14.8,6.2-21,.8-1.3,1.6-2.5,2.3-3.6.6-1,2-1.4,3-.8.5.3.9.8,1,1.3.1.6,0,1.2-.2,1.7l-5.2,8.8s0,0,0,0l-3.2,5.4c-.2.4-.1.9.3,1.2.1,0,.3.1.4.1.3,0,.6-.2.7-.4l3.2-5.4s0,0,0,0c.6-1,1.9-1.4,3-.8.5.3.9.8,1,1.3.1.6,0,1.2-.2,1.7l-3.2,5.4c-.2.4-.1.9.3,1.2.1,0,.3.1.4.1.3,0,.6-.2.7-.4l3-5.1s0,0,0,0c.6-1,2-1.4,3-.8,1,.6,1.4,2,.8,3l-.7,1.1c0,0,0,.1,0,.2l-2.9,4.8c-.2.4-.1.9.3,1.2.1,0,.3.1.4.1.3,0,.6-.2.7-.4l3.2-5.4c.8-.9,2.1-.9,3.1-.4.5.3,1.5,1.1.5,2.9l-5.1,8.6Z"/>
    <path class="cls-9" d="M-624.6,385.6c-.3-.4-.2-.9.2-1.2.4-.3.9-.2,1.2.2l1.7,2.2c.3.4.2.9-.2,1.2-.2.1-.3.2-.5.2-.3,0-.5-.1-.7-.3l-1.7-2.2Z"/>
  </g>
  <g>
    <polygon class="cls-8" points="-551.7 397.8 -535.4 382.1 -507.8 409.9 -507.8 413.2 -510 414.4 -511.8 414.4 -511.8 417.2 -513.6 418.3 -515.4 418 -515.6 421.2 -517.4 422.2 -519.8 422.2 -519.2 424.3 -520.5 426.2 -522.9 426.5 -525.1 424.7 -544.3 404.9 -551.7 397.8"/>
    <path class="cls-9" d="M-522.1,427.3c-.9,0-1.8-.4-2.5-1.1l-27-27.3c-.3-.3-.3-.8,0-1.1.3-.3.8-.3,1.1,0l27,27.3c.8.8,2,.8,2.8.1.4-.4.7-.9.7-1.5,0-.6-.2-1.1-.6-1.5l-5.6-5.9c-.3-.3-.3-.8,0-1.1.3-.3.8-.3,1.1,0l5.6,5.9c.7.7,1,1.6,1,2.6,0,1-.5,1.9-1.2,2.5-.7.6-1.5.9-2.4.9Z"/>
    <path class="cls-9" d="M-508.4,410.4l-27-27.3c-.3-.3-.3-.8,0-1.1.3-.3.8-.3,1.1,0l27,27.3"/>
    <path class="cls-9" d="M-518.1,423.3c-.9,0-1.8-.4-2.5-1.1-.3-.3-.3-.8,0-1.1s.8-.3,1.1,0c.8.8,2,.8,2.8.1.4-.4.7-.9.7-1.5,0-.6-.2-1.1-.6-1.5l-5.6-5.9c-.3-.3-.3-.8,0-1.1.3-.3.8-.3,1.1,0l5.6,5.9c.7.7,1,1.6,1,2.6s-.5,1.9-1.2,2.5c-.7.6-1.5.9-2.4.9Z"/>
    <path class="cls-9" d="M-514.1,419.2c-.9,0-1.8-.4-2.5-1.1-.3-.3-.3-.8,0-1.1.3-.3.8-.3,1.1,0,.8.8,2,.8,2.8.1.4-.4.7-.9.7-1.5,0-.6-.2-1.1-.6-1.5l-5.6-5.9c-.3-.3-.3-.8,0-1.1.3-.3.8-.3,1.1,0l5.6,5.9c.7.7,1,1.6,1,2.6,0,1-.5,1.9-1.2,2.5-.7.6-1.5.9-2.4.9Z"/>
    <path class="cls-9" d="M-510.1,415.1c-.9,0-1.8-.4-2.5-1.1-.3-.3-.3-.8,0-1.1.3-.3.8-.3,1.1,0,.8.8,2,.8,2.8.1.4-.4.7-.9.7-1.5,0-.6-.2-1.1-.6-1.5l-5.6-5.9c-.3-.3-.3-.8,0-1.1.3-.3.8-.3,1.1,0l5.6,5.9c.7.7,1,1.6,1,2.6,0,1-.5,1.9-1.2,2.5-.7.6-1.5.9-2.4.9Z"/>
    <g>
      <rect class="cls-14" x="-547.3" y="407.7" width="10.4" height="5.6" rx="-263.2" ry="-263.2" transform="translate(-449 -263.1) rotate(-45)"/>
      <rect class="cls-14" x="-543.3" y="411.6" width="10.4" height="5.6" rx="-261.2" ry="-261.2" transform="translate(-450.6 -259.1) rotate(-45)"/>
      <rect class="cls-14" x="-539.4" y="415.5" width="10.4" height="5.6" rx="-259.3" ry="-259.3" transform="translate(-452.2 -255.2) rotate(-45)"/>
      <rect class="cls-14" x="-535.5" y="419.5" width="10.4" height="5.6" rx="-257.3" ry="-257.3" transform="translate(-453.9 -251.3) rotate(-45)"/>
    </g>
    <rect class="cls-14" x="-506.1" y="379.7" width="6.8" height="19.2" rx="-246.2" ry="-246.2" transform="translate(-422.5 -241.4) rotate(-45)"/>
    <path class="cls-14" d="M-503.1,398.3l-8.9-9.2c-.6-.7-1.4-1.1-2.3-1.4l-11-3.2c-2.8-.8-5.8.6-7,3.3l-4.5,10.4c-.7,1.7,0,3.7,1.6,4.5h0c1.7.8,3.8.1,4.6-1.6l2.5-5.3c.7-1.5,2.7-1.9,3.9-.8l13.5,13.2,7.5-7.2c.7-.8.7-2,0-2.7Z"/>
  </g>
  <image width="321" height="120" transform="translate(-663.9 468.5) scale(1.1)" xlink:href="Leadership principles icons-1.png"/>
  <g>
    <path class="cls-2" d="M481.3,305.2v-175.5c0-61.2-49.8-111.2-111.2-111.2h-240.4c-61.4,0-111.2,50-111.2,111.2v240.5c0,61.2,49.8,111.2,111.2,111.2h240.4c58.2,0,106-45,110.8-101.7"/>
    <path class="cls-2" d="M250.1,354.4c-57.6,0-104.4-46.8-104.4-104.4s46.8-104.4,104.4-104.4,104.4,46.8,104.4,104.4-46.8,104.4-104.4,104.4Z"/>
    <path class="cls-2" d="M381.4,140.5c-14.9,0-27-12.2-27-27.1s12.1-27,27-27,27,12.2,27,27-12.1,27.1-27,27.1Z"/>
  </g>
</svg>